<?xml version="1.0" encoding="UTF-8"?>
<!-- Generator: Adobe Illustrator 21.0.2, SVG Export Plug-In . SVG Version: 6.00 Build 0)  -->
<svg xmlns="http://www.w3.org/2000/svg" xmlns:xlink="http://www.w3.org/1999/xlink" version="1.1" id="Livello_1" x="0px" y="0px" viewBox="0 0 200 200" style="enable-background:new 0 0 200 200;" xml:space="preserve">
<style type="text/css">
	.st0{fill:#927015;}
	.st1{fill-rule:evenodd;clip-rule:evenodd;fill:#927015;}
</style>
<g>
	<g>
		<path class="st0" d="M71.2,129.6l7.2,0.1c1.8,0,2.7-0.9,2.7-2.7l0.4-59.3c0-0.9-0.2-1.6-0.6-2.1c-0.4-0.4-1.1-0.7-2-0.7l-7.2-0.1    l0-3.2l55.7,0.4l0.2,25l-2.5,0c0-1.3-0.3-3.6-0.8-6.8c-0.5-3.2-1.6-6.1-3.3-8.6c-2.8-4.3-6.7-6.4-11.7-6.5l-15.9-0.1    c-0.9,0-1.6,0.2-2.1,0.6c-0.4,0.4-0.7,1.1-0.7,2l-0.2,26.8l7.7,0.1c3.4,0,5.9-1.7,7.4-5.1c1.5-3.4,2.3-7.1,2.3-11.1l2.6,0    l-0.3,35.7l-2.6,0c0-3.9-0.7-7.6-2.2-11.1c-1.5-3.5-3.9-5.2-7.3-5.2l-7.7-0.1L90.3,127c0,1.8,0.9,2.7,2.7,2.7l16,0.1    c1.9,0,3.9-0.4,5.9-1.3c2-0.9,3.7-2.2,5.1-4c1.3-1.9,2.5-4.2,3.3-7c0.9-2.8,1.5-5.3,1.9-7.6c0.3-2.3,0.6-3.8,0.6-4.4l2.5,0    l-1.4,27.5l-55.7-0.4L71.2,129.6z"></path>
	</g>
</g>
<g>
	<path class="st0" d="M30.3,118.4l0.4,1.4l-2.1,0.6l1.6,1.5l-1.1,1.1l-1.6-1.6l-0.5,2.2l-1.5-0.3l0.6-2.1l-2.1,0.6l-0.4-1.4l2.1-0.6   l-1.6-1.5l1.1-1.1l1.5,1.5l0.5-2.1l1.5,0.3l-0.6,2.1L30.3,118.4z"></path>
	<path class="st0" d="M46.6,159.9c-0.6-0.6-1.6-1.6-3-3c-1.9-1.9-3.3-3.3-4.3-4.2l0.3-0.3c0.3,0.3,0.6,0.5,0.7,0.5   c0.2,0.1,0.4,0.1,0.6,0c0.2-0.1,0.5-0.3,0.8-0.6l6.5-6.5c0.3-0.3,0.5-0.6,0.6-0.8c0.1-0.2,0.1-0.4,0-0.6c-0.1-0.2-0.3-0.4-0.5-0.7   l0.3-0.3c0.9,1,2.3,2.4,4.2,4.3c1.3,1.3,2.2,2.2,2.8,2.7c-0.8,0.7-1.4,1.3-2,1.8c-0.4,0.4-0.7,0.7-0.8,0.9l-0.3-0.3   c0.5-0.7,0.9-1.3,1.1-1.9c0.2-0.6,0.2-1,0.1-1.5c-0.1-0.4-0.4-0.9-0.8-1.3l-0.5-0.5c-0.3-0.3-0.5-0.4-0.6-0.5   c-0.2-0.1-0.3-0.1-0.5,0c-0.2,0.1-0.4,0.3-0.7,0.5l-3.2,3.2l0.4,0.4c0.5,0.5,1,0.6,1.6,0.5c0.6-0.1,1.1-0.3,1.7-0.7l0.3,0.3   c-0.5,0.4-0.9,0.8-1.3,1.2l-0.6,0.6c-0.4,0.4-1,1.1-1.8,1.9l-0.3-0.3c1-1.3,1-2.4,0.1-3.3l-0.4-0.4l-3.3,3.3   c-0.3,0.3-0.5,0.5-0.5,0.7c-0.1,0.2-0.1,0.3,0,0.5c0.1,0.2,0.3,0.4,0.5,0.6l0.6,0.6c0.4,0.4,0.8,0.7,1.3,0.8c0.5,0.1,1,0.1,1.6-0.1   c0.6-0.2,1.3-0.6,2.1-1.2l0.3,0.3c-0.3,0.3-0.7,0.6-1.1,1.1C47.7,158.6,47.1,159.3,46.6,159.9z"></path>
	<path class="st0" d="M64.5,157.4c-0.2,0-0.4,0-0.6,0.2c-0.2,0.1-0.4,0.4-0.6,0.8l-4.9,8c-0.2,0.3-0.3,0.6-0.4,0.8   c0,0.2,0,0.3,0.1,0.5c0.1,0.1,0.3,0.3,0.6,0.5l0.8,0.5c0.5,0.3,1,0.4,1.6,0.4c0.6-0.1,1.2-0.3,1.8-0.6c0.6-0.4,1.2-0.9,1.7-1.5   l0.4,0.2c-0.2,0.3-0.5,0.8-0.9,1.4c-0.5,0.9-1,1.8-1.4,2.6c-0.7-0.5-1.9-1.2-3.6-2.2c-2.3-1.4-4-2.4-5.2-3.1l0.2-0.3   c0.4,0.2,0.6,0.3,0.8,0.3c0.2,0,0.4,0,0.5-0.2c0.2-0.1,0.4-0.4,0.6-0.8l4.8-7.8c0.2-0.4,0.4-0.7,0.4-0.9c0-0.2,0-0.4-0.1-0.6   c-0.1-0.2-0.3-0.4-0.7-0.6l0.2-0.3c0.5,0.4,1.3,0.9,2.5,1.6c1.1,0.6,1.9,1.1,2.5,1.5l-0.2,0.3C65,157.6,64.7,157.5,64.5,157.4z"></path>
	<path class="st0" d="M79.2,164.2c-0.2,0-0.4,0.1-0.5,0.3c-0.1,0.2-0.3,0.5-0.4,0.9l-3,8.6c-0.2,0.4-0.2,0.8-0.2,1   c0,0.2,0.1,0.4,0.2,0.5c0.2,0.1,0.4,0.3,0.8,0.4l-0.1,0.3c-0.6-0.3-1.5-0.6-2.6-1c-1.2-0.4-2.2-0.7-2.8-0.9l0.1-0.3   c0.4,0.1,0.7,0.2,0.9,0.2c0.2,0,0.4-0.1,0.5-0.3c0.1-0.2,0.3-0.5,0.4-0.9l3-8.6c0.2-0.4,0.2-0.8,0.2-1c0-0.2-0.1-0.4-0.2-0.5   c-0.2-0.1-0.4-0.3-0.8-0.4l0.1-0.3c0.6,0.2,1.5,0.6,2.7,1c1.1,0.4,2,0.7,2.7,0.9l-0.1,0.3C79.7,164.2,79.4,164.1,79.2,164.2z"></path>
	<path class="st0" d="M96.6,170.1c-0.1,0.6-0.1,1.1-0.1,1.4l-0.4-0.1c-0.1-1.1-0.2-1.9-0.4-2.5c-0.2-0.6-0.5-1.1-0.9-1.4   c-0.4-0.3-0.9-0.5-1.4-0.6l-0.4,0l-1.3,10.5c-0.1,0.5-0.1,0.9,0,1.1c0.1,0.2,0.2,0.4,0.5,0.5c0.3,0.1,0.7,0.2,1.2,0.3l0,0.4   c-1-0.2-2.2-0.3-3.5-0.5c-1.3-0.2-2.4-0.3-3.4-0.4l0-0.4c0.6,0.1,1,0.1,1.3,0c0.3-0.1,0.5-0.2,0.6-0.4c0.1-0.2,0.2-0.6,0.3-1.1   l1.3-10.5l-0.4,0c-0.6-0.1-1.1,0-1.5,0.2c-0.4,0.2-0.8,0.6-1.2,1.1c-0.4,0.6-0.7,1.3-1.1,2.3l-0.4-0.1c0.1-0.3,0.2-0.8,0.2-1.4   c0.1-0.9,0.2-2,0.3-3.1c1.1,0.2,3,0.4,5.7,0.8c2.7,0.3,4.5,0.5,5.7,0.6C96.9,168.1,96.7,169.2,96.6,170.1z"></path>
	<path class="st0" d="M114.4,178.1c0.2,0.2,0.4,0.2,0.6,0.2l0,0.4c-0.7,0-1.7,0.1-2.8,0.3c-1.3,0.1-2.2,0.3-2.8,0.4l0-0.4   c0.5-0.1,0.8-0.2,1-0.3c0.2-0.1,0.3-0.3,0.2-0.5c0-0.2-0.1-0.5-0.3-0.8l-1.4-2.9l-4,0.4l-0.4,1.3c-0.2,0.9-0.3,1.6-0.3,2.1   c0.1,0.5,0.2,0.8,0.5,0.9c0.3,0.2,0.7,0.2,1.3,0.2l0,0.4c-0.8,0.1-1.6,0.1-2.3,0.2c-0.6,0.1-1,0.1-1.4,0.2l0-0.4   c0.6-0.2,1.1-0.9,1.4-2.1l3-11.2c0.2,0,0.4,0,0.6,0c0.2,0,0.4-0.1,0.6-0.1l5.7,11C113.9,177.7,114.2,177.9,114.4,178.1z    M106.4,169.3l-1.4,5.1l3.7-0.4L106.4,169.3z"></path>
	<path class="st0" d="M133.6,172.7c-0.3,0.3-0.7,0.5-1.2,0.7c-0.7,0.2-1.2,0.3-1.7,0.2c-0.5-0.1-0.9-0.5-1.3-1.2l-1-1.6   c-0.3-0.5-0.6-0.9-0.8-1.2c-0.2-0.3-0.5-0.5-0.8-0.6c-0.3-0.1-0.6-0.1-0.9,0l-1.1,0.4l1.5,4c0.2,0.4,0.3,0.7,0.5,0.9   c0.1,0.2,0.3,0.3,0.5,0.3c0.2,0,0.5-0.1,0.9-0.2l0.1,0.3c-0.6,0.2-1.5,0.5-2.6,0.9c-1.2,0.5-2.1,0.8-2.7,1.1l-0.1-0.3   c0.4-0.2,0.6-0.3,0.8-0.5c0.1-0.1,0.2-0.3,0.2-0.5c0-0.2-0.1-0.5-0.3-1l-3.2-8.6c-0.2-0.4-0.3-0.7-0.5-0.9   c-0.1-0.2-0.3-0.3-0.5-0.3c-0.2,0-0.5,0.1-0.9,0.2l-0.1-0.3c0.6-0.2,1.5-0.5,2.6-0.9c0.2-0.1,0.9-0.3,1.9-0.8l0.8-0.3   c1.6-0.6,2.9-0.8,3.9-0.6c1,0.2,1.7,0.8,2,1.8c0.2,0.5,0.3,1.1,0.2,1.6c-0.1,0.6-0.3,1.1-0.8,1.7c-0.4,0.6-1.1,1.1-2,1.5l0,0   c0.7-0.2,1.3-0.3,1.9-0.3s1,0.1,1.3,0.3c0.4,0.2,0.7,0.5,1,1l1.1,1.6c0.3,0.4,0.5,0.7,0.7,0.8c0.2,0.1,0.4,0.2,0.6,0.1   c0.1-0.1,0.3-0.1,0.3-0.2c0.1-0.1,0.2-0.2,0.2-0.4l0.3,0.1C134.2,172,133.9,172.4,133.6,172.7z M122.9,163.3   c-0.1,0.1-0.2,0.3-0.1,0.6c0,0.2,0.1,0.5,0.3,1l1.6,4.3l0.7-0.3c0.6-0.2,1.1-0.6,1.4-0.9c0.3-0.4,0.4-0.8,0.4-1.3   c0-0.5-0.1-1-0.4-1.6c-0.4-0.9-0.8-1.6-1.3-2c-0.5-0.4-1.2-0.4-1.9-0.1C123.2,163,123,163.2,122.9,163.3z"></path>
	<path class="st0" d="M138.6,155.2c-0.1,0.2-0.1,0.4-0.1,0.6c0.1,0.2,0.2,0.5,0.5,0.9l5,7.7c0.3,0.4,0.5,0.7,0.6,0.8   c0.2,0.1,0.4,0.2,0.6,0.2c0.2,0,0.5-0.2,0.8-0.4l0.2,0.3c-0.6,0.3-1.4,0.8-2.4,1.5c-1.1,0.7-1.9,1.3-2.4,1.6l-0.2-0.3   c0.3-0.2,0.6-0.4,0.7-0.6c0.1-0.2,0.1-0.4,0.1-0.6c-0.1-0.2-0.2-0.5-0.5-0.9l-5-7.7c-0.3-0.4-0.5-0.6-0.6-0.8   c-0.2-0.1-0.4-0.2-0.6-0.2c-0.2,0-0.5,0.2-0.8,0.4l-0.2-0.3c0.5-0.3,1.4-0.8,2.5-1.5c1-0.7,1.8-1.2,2.3-1.6l0.2,0.3   C138.9,154.9,138.7,155.1,138.6,155.2z"></path>
	<path class="st0" d="M160.6,151.4c0.3,0,0.5-0.1,0.6-0.2l0.3,0.3c-0.5,0.5-1.2,1.1-2,2c-0.9,0.9-1.5,1.6-1.9,2l-0.3-0.3   c0.3-0.3,0.5-0.6,0.6-0.8c0.1-0.2,0-0.4-0.1-0.6c-0.2-0.2-0.4-0.3-0.8-0.5L154,152l-2.8,2.9l0.6,1.3c0.4,0.8,0.7,1.4,1.1,1.8   c0.3,0.3,0.6,0.4,1,0.4c0.3-0.1,0.7-0.3,1.1-0.7l0.3,0.3c-0.6,0.6-1.2,1.1-1.7,1.6c-0.4,0.4-0.7,0.8-1,1l-0.3-0.3   c0.4-0.5,0.3-1.4-0.3-2.5l-4.7-10.6c0.2-0.1,0.3-0.3,0.5-0.4c0.2-0.2,0.3-0.3,0.4-0.5l11.4,4.9C160,151.4,160.3,151.5,160.6,151.4z    M148.8,149.7l2.2,4.9l2.6-2.7L148.8,149.7z"></path>
	<path class="st0" d="M168.6,120.9l0.4-1.4l2.1,0.6l-0.5-2.1l1.5-0.3l0.5,2.2l1.6-1.6l1.1,1.1l-1.6,1.5l2.1,0.6l-0.4,1.4l-2.1-0.7   l0.5,2.1l-1.5,0.3l-0.5-2.1l-1.6,1.5l-1.1-1.1l1.6-1.5L168.6,120.9z"></path>
</g>
<g>
	<path class="st0" d="M31,87.7c0.3,0.4,0.5,0.8,0.6,1.2c0.1,0.4,0.2,0.8,0.1,1.2c-0.1,1-0.8,1.9-2,2.7l0,0.2   c-0.1,0.9-0.4,1.6-0.9,2.3c-0.5,0.7-1.1,1.2-1.9,1.6c-0.8,0.4-1.6,0.5-2.4,0.4c-0.8-0.1-1.6-0.4-2.3-0.9c-0.7-0.5-1.2-1.1-1.5-1.9   c-0.3-0.8-0.5-1.6-0.4-2.5c0.1-0.9,0.4-1.6,0.9-2.3c0.5-0.7,1.1-1.2,1.8-1.6c0.7-0.4,1.5-0.5,2.4-0.4c0.7,0.1,1.4,0.3,2,0.7   c0.6,0.4,1.1,0.9,1.5,1.5c0.4,0.6,0.6,1.2,0.7,2c0.8-0.6,1.2-1.3,1.3-1.9c0.1-0.5-0.2-1.2-0.7-1.9L31,87.7z M26.6,95.9   c0.6-0.3,1.1-0.7,1.5-1.3c0.4-0.6,0.6-1.2,0.7-1.9c0.1-0.7,0-1.3-0.3-2c-0.3-0.6-0.7-1.1-1.3-1.5c-0.6-0.4-1.2-0.6-1.9-0.7   c-0.7-0.1-1.4,0-2,0.3c-0.6,0.3-1.1,0.7-1.5,1.3c-0.4,0.6-0.6,1.2-0.7,1.9c-0.1,0.7,0,1.4,0.3,2c0.3,0.6,0.7,1.1,1.2,1.5   s1.2,0.6,1.9,0.7C25.3,96.3,26,96.2,26.6,95.9z"></path>
	<path class="st0" d="M29.7,82.7c0.6-0.4,1.1-1,1.3-1.9c0.2-0.9,0.2-1.6-0.2-2.3s-1-1.1-1.9-1.3l-5.3-1.4l0.2-0.9l5.3,1.4   c1.1,0.3,2,0.9,2.4,1.7c0.5,0.8,0.6,1.8,0.3,3s-0.9,2-1.7,2.4c-0.8,0.5-1.8,0.6-3,0.2l-5.3-1.4l0.2-0.9l5.3,1.4   C28.3,83.1,29.1,83.1,29.7,82.7z"></path>
	<path class="st0" d="M36.8,67.5l-2.7,0l-2.1,4.7l1.8,2L33.5,75l-6.7-7.5l0.4-0.9l10.1,0L36.8,67.5z M31.5,71.5l1.8-4l-5.4,0   L31.5,71.5z"></path>
	<path class="st0" d="M31,59.1l0.5-0.8l7.1,4.4l2.1-3.4l0.7,0.4L38.8,64L31,59.1z"></path>
	<path class="st0" d="M36.2,51.5l0.5-0.7l7.3,5.6L43.5,57L36.2,51.5z"></path>
	<path class="st0" d="M39.3,47.5l4.8-5.1l0.6,0.6l-2.1,2.2l6.1,5.7L48,51.6L42,45.9l-2.1,2.2L39.3,47.5z"></path>
	<path class="st0" d="M52.4,35.3l1,6.8l2.1,2.5l-0.7,0.6l-2.1-2.5l-6.5-2.3l0.7-0.6l5.5,1.9l-0.8-5.7L52.4,35.3z"></path>
	<path class="st0" d="M61,29.8l5.1-2.7l0.4,0.7l-4.3,2.2l1.6,3.1l3.8-2L68,32l-3.8,2l1.9,3.6l-0.8,0.4L61,29.8z"></path>
	<path class="st0" d="M76.3,23.8c0.8,0.2,1.6,0.5,2.2,1c0.6,0.5,1.1,1.2,1.4,2c0.3,0.8,0.3,1.6,0.2,2.4c-0.2,0.8-0.5,1.5-1.1,2.2   c-0.6,0.6-1.2,1.1-2.1,1.4c-0.8,0.3-1.7,0.3-2.5,0.2c-0.8-0.2-1.6-0.5-2.2-1c-0.6-0.5-1.1-1.2-1.4-2c-0.3-0.8-0.3-1.6-0.2-2.4   c0.2-0.8,0.5-1.5,1.1-2.2c0.6-0.6,1.2-1.1,2.1-1.4C74.7,23.7,75.5,23.7,76.3,23.8z M72.5,25.9c-0.5,0.5-0.7,1.1-0.9,1.8   c-0.1,0.7-0.1,1.3,0.1,2c0.2,0.7,0.6,1.2,1.1,1.7c0.5,0.4,1.1,0.7,1.8,0.9c0.7,0.1,1.3,0.1,2-0.1c0.7-0.2,1.2-0.6,1.6-1.1   c0.4-0.5,0.7-1.1,0.9-1.8c0.1-0.7,0.1-1.3-0.1-2s-0.6-1.2-1.1-1.7c-0.5-0.4-1.1-0.7-1.8-0.9c-0.7-0.1-1.3-0.1-2,0.1   C73.5,25,72.9,25.4,72.5,25.9z"></path>
	<path class="st0" d="M89.4,21c0.8,0.3,1.4,0.8,2,1.4c0.5,0.6,0.9,1.4,1,2.2c0.1,0.8,0,1.6-0.3,2.4c-0.3,0.8-0.8,1.4-1.4,2   c-0.7,0.5-1.4,0.9-2.3,1c-0.9,0.1-1.7,0.1-2.5-0.2c-0.8-0.3-1.5-0.8-2-1.4c-0.5-0.6-0.9-1.4-1-2.2c-0.1-0.8,0-1.6,0.3-2.4   c0.3-0.8,0.8-1.4,1.4-1.9c0.7-0.5,1.4-0.9,2.3-1C87.8,20.6,88.7,20.7,89.4,21z M85.3,22.3c-0.5,0.4-0.9,1-1.2,1.6   c-0.3,0.6-0.3,1.3-0.2,2c0.1,0.7,0.4,1.3,0.8,1.8c0.4,0.5,1,0.9,1.6,1.2c0.6,0.2,1.3,0.3,2,0.2c0.7-0.1,1.3-0.4,1.8-0.8   c0.5-0.4,0.9-1,1.2-1.6c0.2-0.6,0.3-1.3,0.2-2c-0.1-0.7-0.4-1.3-0.8-1.8c-0.4-0.5-1-0.9-1.6-1.1c-0.6-0.2-1.3-0.3-2-0.2   C86.4,21.6,85.8,21.9,85.3,22.3z"></path>
	<path class="st0" d="M102.8,20.4c0.7,0.4,1.3,1,1.7,1.7c0.4,0.7,0.6,1.5,0.6,2.3c0,0.8-0.2,1.6-0.6,2.3c-0.4,0.7-1,1.2-1.7,1.6   c-0.7,0.4-1.5,0.6-2.4,0.6l-3.7,0l0.1-9.2l3.7,0C101.3,19.8,102.1,20,102.8,20.4z M102.3,27.7c0.6-0.3,1-0.8,1.4-1.3   c0.3-0.6,0.5-1.2,0.5-1.9c0-0.7-0.2-1.3-0.5-1.9c-0.3-0.6-0.8-1-1.4-1.4c-0.6-0.3-1.2-0.5-1.9-0.5l-2.8,0l-0.1,7.5l2.8,0   C101.1,28.1,101.7,28,102.3,27.7z"></path>
	<path class="st0" d="M115.9,21.3l6,1.4l-0.2,0.8l-5.1-1.2l-0.8,3.2l4.6,1.1l-0.2,0.8l-4.6-1.1l-0.8,3.4L120,31l-0.2,0.8l-6.1-1.5   L115.9,21.3z"></path>
	<path class="st0" d="M126,24.1l1,0.4l1.1,4.4l3.8-2.5l1,0.4l-4.5,2.9l1.4,5.7l-1-0.4l-1.2-4.8l-4.2,2.7l-1-0.4l4.9-3.1L126,24.1z"></path>
	<path class="st0" d="M142.1,32.8c0.3,0.8,0.2,1.6-0.3,2.4c-0.5,0.9-1.2,1.4-2,1.6c-0.8,0.2-1.7,0-2.7-0.6l-2.1-1.2l-1.5,2.6   l-0.8-0.5l4.6-7.9l2.9,1.7C141.2,31.3,141.8,32,142.1,32.8z M139.5,35.9c0.6-0.1,1.1-0.5,1.5-1.1c0.4-0.6,0.4-1.2,0.2-1.8   c-0.2-0.6-0.7-1.1-1.5-1.5l-2.1-1.2l-2.3,4l2.1,1.2C138.2,35.8,138.9,36,139.5,35.9z"></path>
	<path class="st0" d="M147.1,35.3l4.8,3.8l-0.5,0.6l-4.1-3.3l-2,2.6l3.7,2.9l-0.5,0.6l-3.7-2.9l-2.1,2.7l4.2,3.4l-0.5,0.6l-4.9-3.9   L147.1,35.3z"></path>
	<path class="st0" d="M153.2,53.3l0.8-3.5c-0.2-0.2-0.4-0.3-0.5-0.5l-1.7-1.8l-2.2,2l-0.6-0.7l6.7-6.3l2.3,2.5   c0.8,0.8,1.2,1.7,1.2,2.5c0,0.8-0.3,1.6-1,2.2c-0.6,0.5-1.1,0.8-1.8,0.9c-0.6,0.1-1.2-0.1-1.9-0.4l-0.8,3.8L153.2,53.3z    M154.2,48.8c0.6,0.6,1.2,1,1.8,1.1c0.6,0.1,1.2-0.1,1.7-0.7c0.5-0.5,0.8-1.1,0.7-1.7c0-0.6-0.4-1.2-1-1.9l-1.7-1.8l-3.3,3.1   L154.2,48.8z"></path>
	<path class="st0" d="M163.7,51.8l0.5,0.7l-7.4,5.4l-0.5-0.7L163.7,51.8z"></path>
	<path class="st0" d="M167.3,57l3.1,5.3l-0.7,0.4l-2.6-4.5l-2.8,1.6l2.4,4l-0.7,0.4l-2.4-4.1l-3,1.7l2.7,4.7l-0.7,0.4l-3.2-5.5   L167.3,57z"></path>
	<path class="st0" d="M175.1,73.3l0.3,0.8l-8.5,3.3l-0.3-0.9l5.2-8.1l-7.2,2.8l-0.3-0.8l8.5-3.3l0.3,0.9l-5.2,8.1L175.1,73.3z"></path>
	<path class="st0" d="M177.2,85.3c0.1-0.5,0.1-1,0-1.5c-0.1-0.7-0.4-1.3-0.9-1.8c-0.5-0.5-1-0.9-1.7-1.1c-0.6-0.2-1.3-0.3-2-0.1   c-0.7,0.1-1.3,0.4-1.8,0.9c-0.5,0.5-0.9,1-1.1,1.7c-0.2,0.6-0.2,1.3-0.1,2c0.1,0.5,0.3,1,0.6,1.4c0.3,0.4,0.6,0.8,1.1,1.1l-0.5,0.7   c-0.5-0.4-0.9-0.8-1.3-1.3c-0.4-0.5-0.6-1.1-0.7-1.7c-0.2-0.8-0.1-1.7,0.1-2.5c0.3-0.8,0.7-1.5,1.3-2c0.6-0.6,1.3-0.9,2.2-1.1   c0.8-0.2,1.6-0.1,2.4,0.1s1.5,0.7,2,1.4c0.6,0.6,0.9,1.4,1.1,2.2c0.1,0.6,0.1,1.2,0,1.8c-0.1,0.6-0.3,1.2-0.6,1.7l-0.7-0.4   C176.9,86.3,177.1,85.8,177.2,85.3z"></path>
	<path class="st0" d="M179.2,91.6l0.4,6.1l-0.8,0.1l-0.3-5.2l-3.3,0.2l0.3,4.7l-0.8,0.1l-0.3-4.7l-3.4,0.2l0.3,5.4l-0.8,0l-0.4-6.3   L179.2,91.6z"></path>
</g>
<g>
	<path class="st1" d="M32.1,160.2c0.3,0.3,0.8,1,0.9,1C32.8,160.9,32.5,160.4,32.1,160.2z"></path>
	<path class="st1" d="M82.7,188.4c-0.8-0.2-1.6-0.3-2.2-0.4c-0.7-0.1-1.2-0.2-1.8-0.3c0.7,0.1,1.5,0.4,2.3,0.5   c0.8,0.2,1.6,0.3,2.4,0.5c1.6,0.4,3.2,0.6,4.6,0.7c-1.9-0.2-3.3-0.9-4.8-0.9L82.7,188.4z"></path>
	<path class="st1" d="M58.7,180.8c-0.2-0.2-1.1-0.6-1.4-0.6C57.9,180.6,58.1,180.6,58.7,180.8z"></path>
	<path class="st1" d="M104.9,5.9c-0.7,0-1.2,0-1.6,0C103.9,6,104.8,6.1,104.9,5.9z"></path>
	<path class="st1" d="M106.4,6.1l2.1,0.2C108.5,6.1,106.7,6,106.4,6.1z"></path>
	<path class="st1" d="M193,104.9c-0.1,0.7-0.1,1.4-0.1,1.8C193.1,106,193,105.3,193,104.9z"></path>
	<path class="st1" d="M193.6,93.6c0.1-0.5,0-0.9,0-1.8c-0.2-0.2-0.1,0.5-0.3,0.4l0.1,1C193.5,93.1,193.5,93.6,193.6,93.6z"></path>
	<path class="st1" d="M162.1,168.3c-0.6,0.7-1.6,1.3-1.6,1.5C161.3,169.1,162,168.7,162.1,168.3z"></path>
	<path class="st1" d="M163.9,166.7C161.9,168.5,162.6,168.1,163.9,166.7L163.9,166.7z"></path>
	<path class="st1" d="M166.6,164.1c-0.5,0.4-2.5,2.4-2.4,2.4C165.1,165.6,166.1,164.8,166.6,164.1z"></path>
	<path class="st1" d="M94.5,191.9c2,0-0.6-0.1-1.8-0.1c0.2,0,0.6,0,0.6,0.1C94,192,94,191.9,94.5,191.9z"></path>
	<path class="st1" d="M154.4,175.2c0.5-0.4,1.4-1,1.6-1.2C155.5,174.4,154.5,174.9,154.4,175.2z"></path>
	<path class="st1" d="M161.4,169.6c-0.8,0.7-2.1,1.6-2.6,2.2C159.6,171.1,160.9,170.2,161.4,169.6z"></path>
	<path class="st1" d="M143.1,182.2c-1.3,0.8-2.5,1.1-3.6,1.7C139.6,184,142.5,182.7,143.1,182.2z"></path>
	<path class="st1" d="M192,119.4c-0.2,0.9-0.8,2.8-0.5,1.9C191.5,121.4,192,120,192,119.4z"></path>
	<path class="st1" d="M193.3,113.7c0-0.5,0.3-1.4,0.2-1.6C193.4,112.9,193.2,113.3,193.3,113.7z"></path>
	<path class="st1" d="M157.8,173.4l1.9-1.5C159.5,171.8,157.6,173.6,157.8,173.4z"></path>
	<path class="st1" d="M133.9,187.2c0.6-0.3,1.6-0.6,1.8-0.8C135.2,186.6,134.1,187,133.9,187.2z"></path>
	<path class="st1" d="M116.3,192.8c-0.6,0.1-1.3,0.2-2,0.3c-0.7,0.1-1.5,0.2-2.1,0.3c-0.6,0.1-1.1,0.1-1.4,0.2   c1.4,0.1,3.3-0.4,4.6-0.6c0.6,0,4.5-0.8,2.2-0.4C117.4,192.6,116.9,192.7,116.3,192.8z"></path>
	<path class="st1" d="M132.1,188.8c0.5-0.2,0.9-0.3,1.2-0.3c-0.1-0.1,0.2-0.2,0.3-0.3C133.4,188.2,132.2,188.6,132.1,188.8z"></path>
	<path class="st1" d="M185,143.6c0.4-0.7,0.8-1.2,0.8-1.6C185.6,142.5,185,143.4,185,143.6z"></path>
	<path class="st1" d="M157.1,20.1c1.1,0.8,1.8,1.4,2.8,2.1C159,21.4,157.7,20.4,157.1,20.1z"></path>
	<path class="st1" d="M196.7,103.7c0-0.7,0.1-1,0.1-1.8C196.6,101.7,196.6,103.6,196.7,103.7z"></path>
	<path class="st1" d="M161.7,22.6c0.5,0.5,0.7,0.5,1.1,0.7C162.4,22.8,162,22.7,161.7,22.6z"></path>
	<path class="st1" d="M192.9,63.5c1.1,3,0-0.3-0.6-1.6C192.5,62.4,192.7,63,192.9,63.5z"></path>
	<path class="st1" d="M194.8,68.4c0,0.3,0.2,0.7,0.3,1.2C195.4,69.8,194.9,68.4,194.8,68.4z"></path>
	<path class="st1" d="M192.4,60.5c-0.2-0.5-0.5-1.1-0.7-1.3c0.2,0.5,0.2,0.6,0.4,1.2C192.2,60.4,192.3,60.4,192.4,60.5z"></path>
	<path class="st1" d="M194.8,67.3c0.1,0.8,0.6,1.9,0.7,2.6C195.7,69.7,195.1,67.6,194.8,67.3z"></path>
	<path class="st1" d="M198,118.4c0.1,0.2-0.3,1-0.1,1.1c0.1-0.4,0.2-0.6,0.3-1.2C198.2,118.2,198.1,118.1,198,118.4z"></path>
	<path class="st1" d="M120.3,196.5l-0.2,0c-0.1-0.1-0.7,0.1-0.5-0.1l-1.5,0.3l-0.2,0c-0.3,0.1-1.1,0.1-1,0.2c0.2,0,0.3,0,0.4,0   c-0.2,0.1-0.3,0.1-0.4,0.2c0.2,0,0.4-0.1,0.6-0.1c0.5-0.1,1-0.2,1.3-0.2c0.4,0,2.3-0.3,2.1-0.5L120.3,196.5z"></path>
	<path class="st1" d="M23,149.3c1.1,1.7,2.6,3.4,4,5.2c0.8,0.9,1.6,1.8,2.4,2.7c0.8,0.9,1.7,1.8,2.6,2.8c-0.7-0.9-1.7-1.8-2.4-2.7   c-0.8-0.9-1.5-1.8-2-2.4c-0.3-0.4-0.6-0.8-0.9-1.2c-0.5-0.7-1.2-1.6-1.9-2.4c-0.7-0.8-1.3-1.7-1.7-2.2   C23.7,149.9,23,149.3,23,149.3z"></path>
	<path class="st1" d="M15.6,135.3c-0.1-0.4-0.3-0.8-0.4-1.2c-0.1,0.2-0.1,0.3-0.4-0.1c0.5,1.2,0.9,2,1.3,2.8   c0.4,0.8,0.7,1.5,1.3,2.4c-0.5-1-0.9-1.9-1.3-2.8C15.9,136.1,15.8,135.7,15.6,135.3z"></path>
	<path class="st1" d="M181.7,144.8l0.1-0.2c0.6-1,1.1-2,1.6-2.9c0.5-0.9,0.9-1.7,1.1-2.4c-0.6,1.3-1.3,2.4-2,3.7   c-0.7,1.5-1,1.9-1.9,3.3c-0.5,0.7-1,1.5-1.5,2.3c-0.5,0.8-1,1.6-1.5,2.4c0.8-1.2,1.4-2,2-3C180.3,147.1,180.9,146.1,181.7,144.8z"></path>
	<path class="st1" d="M186.7,135c0.3-1,0-0.3-0.5,0.8c-0.5,1.1-1.2,2.5-1.3,2.9c0.3-0.6,0.4-0.7,0.6-1.2   C185.6,137.4,186.3,136,186.7,135z"></path>
	<path class="st1" d="M194.2,101.8c0.2-0.7,0.3,0,0.4,0.4c0.2-0.8,0.3-2.6,0.2-3.6l0-0.2c-0.1-0.5,0.1-1.2,0-1.2l0-0.2   c0.1-1.1,0-3.1,0-3.8l0-0.4c0-0.6,0.1-1.7-0.1-2.2l-0.1-1c0-0.3-0.1-0.7-0.1-0.8c-0.1,0.9,0.2,1.9,0.2,3.4c0.1,1.7,0.2,3,0.1,4.6   C194.3,97.9,194.4,100.2,194.2,101.8z"></path>
	<path class="st1" d="M125.6,190.8c-0.6,0.2-1.1,0.3-1.4,0.4c1.4-0.3,2.4-0.7,3.3-1c0.9-0.3,1.8-0.5,2.9-0.9c-0.5,0.1-1.7,0.4-3,0.8   C126.8,190.4,126.1,190.6,125.6,190.8z"></path>
	<path class="st1" d="M180.3,151.7c0.4-0.6,1.1-1.5,1.2-1.9C181,150.6,180.6,151.1,180.3,151.7z"></path>
	<path class="st1" d="M196.8,96.4c0,0.8-0.1,2.1,0,3.3C196.9,98.4,197,97.5,196.8,96.4z"></path>
	<path class="st1" d="M163.6,24.7c1.3,1.1,2.7,2.3,3.7,3.4c-1.1-1.2-2.4-2.3-3.6-3.4c-1.2-1-2.4-2-3.5-2.9   C161,22.6,162.2,23.6,163.6,24.7z"></path>
	<path class="st1" d="M170,30.3c-0.4-0.8-2.4-2.7-3.5-3.8c-0.1,0,0.1,0.3-0.1,0.1c-0.5-0.7-1.2-1.2-1.1-1.2   c-0.1-0.1-0.2-0.2-0.2-0.1c0.6,0.8,1.4,1.6,2.2,2.4C168.1,28.6,169,29.5,170,30.3z"></path>
	<path class="st1" d="M199.2,109.4c-0.3,1.5-0.5,3.9-0.7,5C198.8,113.5,199.2,111,199.2,109.4z"></path>
	<path class="st1" d="M147.2,178c-1.7,0.9-3.7,2.1-5.3,2.9l-0.2,0.1c-1,0.5-1.6,0.7-2.4,1.2l-0.4,0.2c-0.5,0.1-1.2,0.6-1.4,0.8   c0.1-0.1,0.2-0.1,0.2,0c0.5-0.3,1.3-0.7,2.1-1l0,0c1.5-0.7,1.7-0.9,2.8-1.4c0.9-0.5,1.7-0.9,2.4-1.4   C145.9,178.8,146.6,178.4,147.2,178z"></path>
	<path class="st1" d="M136.6,185.4c0-0.3,1.6-0.8,2.5-1.3c-0.1-0.2-1.3,0.6-1.5,0.5c0-0.1,0.8-0.4,0.8-0.5c-1.8,0.9-3.4,1.6-4.6,2.3   C135.3,185.7,135.4,185.9,136.6,185.4z"></path>
	<path class="st1" d="M155.2,175.2c-0.3,0.2-0.7,0.5-1.2,0.8c-0.5,0.3-1,0.7-1.6,1c-1.1,0.7-2.2,1.5-2.9,2c1-0.6,1.9-1.2,2.9-1.8   C153.4,176.6,154.3,176,155.2,175.2z"></path>
	<path class="st1" d="M99.4,193.1c-0.7,0-1.3,0-2,0C97.5,193.3,99.2,193.2,99.4,193.1z"></path>
	<path class="st1" d="M160.8,173.6C161.2,173.2,161.3,173.1,160.8,173.6L160.8,173.6z"></path>
	<path class="st1" d="M173.3,31.3c-0.4-0.4-0.8-0.9-1.2-1.4c-0.4-0.4-0.8-0.8-1-0.9C171.8,29.7,172.9,31.2,173.3,31.3z"></path>
	<path class="st1" d="M199.8,103.5c0.1-0.9,0.3-3.7,0.1-4.2C199.9,100.7,199.6,103,199.8,103.5z"></path>
	<path class="st1" d="M199.7,88.4C199.7,88.4,199.7,88.4,199.7,88.4c0,0,0-0.1,0-0.1c0-0.6-0.1-1.2-0.2-1.9c0-0.9-0.3-1.5-0.3-2.1   c-0.3-0.9-0.5-1.8-0.5-2.9c-0.1,0-0.1-0.4-0.2-0.4l-0.2-1.2c-0.3-1.8-0.7-4.1-1.2-5.2l0.4,1.7L198,78l0.1,0.6   c0,0.5,0.3,1.5,0.1,1.7c0.3,0.6,0.7,3.1,0.5,3.3c0-1.4-0.2-0.7-0.3-1.9c0.1,0,0.1,0.7,0.2,0.6c-0.1-0.4-0.1-1.4-0.3-1.5   c0,0.3-0.1,0.3-0.1,0l-0.7-3.7c-0.1-0.6-0.2-1.1-0.4-1.6c-0.4-1.8-0.7-2.4-1-3.2c0.1-0.1,0.2,0.3,0.2,0.4l-0.3-1.2l-0.2,0.1   c0.2,1,0.4,1.3,0.4,2.1c-0.2-0.4-0.4-1.2-0.6-2.1c-0.3-0.9-0.5-1.8-0.8-2.6c-0.3-1,0.1,0.4,0.2,0.8c0.2,0.7,0.4,1.4,0.6,2.1   c0.2,0.8,0.4,1.5,0.6,2.3c0.2,0.8,0.4,1.6,0.6,2.3c0.2,0.8,0.3,1.5,0.5,2.2c0,0.5,0.1,1.4,0.2,2.2c0.1,0.9,0.2,1.7,0.3,2.1   c0.2,0.7,0.3,1.4,0.5,2.5c-0.1,1.3,0,2.9,0.2,4.6c0.1,1.7,0.2,3.5,0.3,5c0.1,0.3,0.2,0.7,0.3,1.2c0.1-1.5-0.1-2.8-0.3-4.2   c-0.1-1.4-0.3-2.8-0.3-4.3c0.1,0,0.2,0.5,0.4,0.6c0.3,1.9,0.3,4.1,0.5,6.7c-0.1,0.4,0,1.6,0,2.3l0,0.8c0.1,1.4,0.1,2.3,0,3.2   c0,0.9-0.1,1.9-0.2,3.3c0.3-1.2,0.5-3.5,0.4-5.9l0-1.7c0.1-0.8,0.1-1.7,0.1-2.6c0-0.9-0.1-1.9-0.1-2.9c0-0.4,0-1-0.1-1.6   c0-0.6-0.1-1.2-0.1-1.8c-0.1-1.1-0.1-2,0.1-1.9c0,0.2,0.1,0.6,0.1,0.6c0,0.4,0.1,0.7,0.1,1.1c0.1,0.5,0.1,1.5,0.2,2.4   c0,0.9,0.1,1.7,0.4,1.8C199.9,91,199.8,89.9,199.7,88.4z M199.5,86.9C199.5,86.9,199.5,86.8,199.5,86.9   C199.5,86.8,199.5,86.9,199.5,86.9z M199.5,86.5C199.5,86.6,199.5,86.6,199.5,86.5C199.5,86.6,199.5,86.6,199.5,86.5z M199.7,88.9   c0-0.1,0-0.1,0-0.2C199.7,88.8,199.7,88.8,199.7,88.9z"></path>
	<path class="st1" d="M160.7,171.6c-2.4,1.7-4.5,3.9-7,5.1c0,0.2,0.9-0.6,0.8-0.2c-0.6,0.5-0.9,0.7-1.7,1.2c0.1,0.1-0.2,0.3,0,0.3   c1.5-0.9,2.8-1.9,4.3-3c1.4-1.1,2.8-2.3,4.2-3.5c-0.5,0.3-1.3,1-1.4,0.9C159.9,172.3,160.9,171.7,160.7,171.6z"></path>
	<path class="st1" d="M170.2,32.1c0.4,0.4,0.8,0.9,1,1c-0.2-0.7-0.7-1-1.7-2C169.5,31.2,169.9,31.6,170.2,32.1z"></path>
	<path class="st1" d="M67.4,184.6c0.9,0.3,2.4,0.8,3.9,1.4c1.5,0.5,3,0.9,3.9,1.1c-1.2-0.4-2.7-0.8-4.1-1.3   C69.8,185.2,68.4,184.8,67.4,184.6z"></path>
	<path class="st1" d="M119.3,191.1c-0.7,0.3-3.8,0.6-4.3,0.9c1.1-0.2,1.7-0.2,2.6-0.4C117.5,191.5,120.1,191.2,119.3,191.1z"></path>
	<path class="st1" d="M195.8,112.1c0.1-0.9,0.3-0.3,0.4-0.8c-0.1-0.1,0.1-0.3,0.1-0.8c-0.1-0.1-0.1-1-0.2-0.4   C196.1,110.2,195.7,111.7,195.8,112.1z"></path>
	<path class="st1" d="M138.9,185.5c1.1-0.5,2.2-1,3.4-1.6c1-0.5,1.9-1,2.9-1.5c0.6-0.3,1.2-0.6,1.8-1c0.9-0.5,1.8-1.1,2.3-1.3   c1.2-0.7,0.3-0.2-0.2,0.1c-0.4,0.2-1.1,0.7-1.7,0.7c-0.5,0.3-0.3,0.2-0.9,0.5c-1.2,0.7-2.7,1.5-4.3,2.3c-1.6,0.7-3.2,1.5-4.5,2.1   c-1.7,0.7-3.3,1.4-5.4,2.1l-0.6,0.2c-0.5,0.1-2.4,0.8-2.9,1c0.9-0.2,1.8-0.5,2.8-0.8c1-0.3,2.2-0.6,3.5-1.3   C136.6,186.5,137.8,186,138.9,185.5z"></path>
	<path class="st1" d="M174.1,35c0.3,0.5,1.2,2,1.6,1.9l0.3,0.3c0.6,0.7,1.1,1.3,1.5,1.7c-0.8-1.2-2.1-2.9-3.2-4   c-0.1-0.1-0.2-0.2-0.3-0.3c-1.3-1.3-2.2-2.6-3.4-3.6c0.8,0.8,1.2,1.5,2.1,2.5C173.2,33.9,173.4,34.2,174.1,35z"></path>
	<path class="st1" d="M198.6,109.7c0.1-0.8,0-1.2,0-1.5c0,0.3-0.1,0.1-0.1,0l-0.1,1c0,0.3-0.1,0.7-0.1,1c-0.1,0.9-0.2,2.4-0.5,2   c0.1-0.9,0.3-2.2,0.4-3.4c0.1-1.2,0.2-2.2,0.2-2.6l-0.1,1.5c-0.1,0-0.1-0.1-0.1-0.2c0.1-0.7,0-0.8,0,0c-0.1,0.1-0.1,1-0.2,0.4   c0.3-3,0.4-6.2,0.5-8.9c0.1-0.4,0-1.7,0-2.5c0.1-1.3-0.2-3.7-0.2-5c-0.1-1.4-0.3-2.7-0.3-3.9c0-0.6-0.1-1.2-0.1-1.8   c-0.1-0.6-0.2-1.2-0.2-1.8c-0.2-1.2-0.4-3.2-0.8-4.9c-0.1-0.8-0.3-1.8-0.5-2.8c-0.3-1-0.6-2.1-0.8-3.1c-0.3-1.4-0.4-1.7-0.8-3   c0-0.3-0.4-1.4-0.6-2c-0.3-1.2-0.9-2.1-1-3c-0.5-1.3-0.9-2.7-1.5-4.1c-0.6-1.4-1.1-2.8-1.8-4l-0.1-0.2c-0.4-0.9-0.6-1.5-0.6-1.8   c0.4,0.3,1,1.7,1.4,2.4c0.7,1.2-1.6-3.5-1.8-4l-0.5-0.9c-0.2-0.7-0.9-1.7-1-2.3c-0.2-0.1-0.5-0.8-0.9-1.4c-1-1.4-1.4-2.6-2.2-3.6   c0.4,0.8,1.3,2.2,1.7,3.1c0.3,0.8-0.1,0.2-0.4-0.2c0.4,0.6,0.7,1.3,1,1.8c0.3,0.6,0.6,1.1,0.9,1.6c0.5,1,0.9,1.9,1.2,2.7   c-0.9-1.6-1.6-2.5-2.3-3.7l-0.1-0.2c0-0.3-0.1-0.7,0.2-0.3c-2.2-4.1-4.9-8-7.5-11.5c-1.1-1.5-2-3-3.3-4.1c0.7,1,1.7,2,1.8,2.6   c-0.3-0.1-1.2-1.6-1.5-1.7c0.9,1.2,2.4,2.9,3,3.8l0.1,0.2l-0.1,0.1c2.2,3.1,5,7.6,7.4,12l0.1,0.2c0.4,0.7,0.7,1.3,1,2   c0.3,0.6,0.7,1.3,1,2.1c0.2,0.3,0.5,1.3,1,2.1c0.2,0.4,0.3,0.7,0.5,1.1c0.2,0.4,0.3,0.8,0.5,1.2c0.3,0.8,0.7,1.7,1,2.5   c0.7,1.7,1.2,3.4,1.8,4.8c-0.1-0.3-0.1-0.5,0-0.4c0.3,0.8,0.7,2,1.1,3.2c0.2,0.6,0.4,1.3,0.6,1.9c0.2,0.6,0.3,1.3,0.4,1.8   c0.2,0.7,0.2,1,0.4,1.6l0.1,0.2c0.4,1.3,0.5,2.5,0.8,3.9c0.1,0.7,0.3,1.3,0.4,2c0.1,0.7,0.2,1.5,0.4,2.2c-0.1,0.1,0.1,0.6-0.1,0.4   c0-0.1,0-0.2-0.1-0.4c0-0.2,0-0.3-0.1-0.5c-0.2-1.1-0.3-2.2-0.5-2.2c0.1,0.3,0.1,0.5,0.1,0.8c0.3,1.6,0.4,2.9,0.5,4.1   c0.1,1.2,0.2,2.4,0.3,3.7c-0.1,0,0,0.3-0.1,0.2c-0.1-0.5-0.2-1.1-0.2-1.8c-0.1-2.6-0.6-3.3-0.9-5.7c-0.2-0.6-0.1-0.6-0.2-1.4   c-0.2-1.3-0.5-2.8-0.8-4.3c-0.3-1.4-0.7-2.8-1-3.9c-0.3,0.1-0.4-1-0.2,0.3c-0.5-1.3-1.3-3.7-1.5-4.9c0.3,0.8,0.7,2.2,1,2.9   c-0.2-0.8-0.5-1.8-0.7-2.7c-0.2-0.9-0.5-1.7-0.4-2.1c-0.1,0.2-0.4-0.8-0.6-1.1c-0.2-0.6-0.4-1.2-0.7-1.8c-0.2-0.6-0.5-1.2-0.7-1.8   c-0.5-1.2-0.9-2.4-1.4-3.4c0.1,0-0.2-0.6-0.1-0.6c-0.5-1.1-1-2.3-1.6-3.5c-0.6-1.1-1.2-2.3-1.8-3.5c-0.7-1.1-1.3-2.3-2-3.4   c-0.6-1.1-1.4-2.1-2.1-3.2c0.2,0.3,0.2,0.4,0.1,0.4c-0.7-1.2-0.7-0.4-1.2-1.1c-0.4-0.4-0.9-1.1-1.5-1.9l-0.4-0.5l-0.6-0.8   c-0.6-1-1.2-1.7-1.9-2.2c-0.6-0.6-1.2-1.1-1.8-1.9c0-0.3,0.4,0.5,0.4,0.2c-0.5-0.7-1.6-2-2-2.1c0.3,0.6,1,1.5,1.6,2.4   c0.6,0.4,1.9,2,1.8,2.4c0.3-0.1,1.2,1.4,1.7,2l0.5,0.7c0,0.2,0.3,0.8,0.7,1.4c0.4,0.6,0.9,1.4,1.2,1.9c0.7,1.2,1.6,2.5,2.4,3.9   c0.8,1.4,1.6,2.7,2.2,3.7c0.1,0.6,0.1,1.1,0.7,2.4c1.3,2.6,2.5,5.6,3.4,7.8c0,0.3,0.5,1.3,0.7,1.9c0.2,0.5,0.4,1.1,0.4,1.3   c0.2,0.7,0.4,1.4,0.8,2.3c0.2,0.5,0.3,0.9,0.3,1.2c0,0.3,0.4,1.3,0.5,1.9l0.4,1.3c0.7,2.8,1,4.3,1.6,7.4c-0.1,0.4,0.4,2,0.4,3   c0,0.1,0,0.3,0.1,0.4c0.1,0.7,0.2,1.6,0.3,2.5c0.1,0.9,0.2,1.8,0.3,2.2c-0.1-0.8-0.1-1.4-0.1-1.9c0-0.6-0.1-1.1-0.3-1.6   c0-0.7,0.3-1.2,0-2.2l0-0.2c0-0.6-0.3-1.9-0.5-2.8c-0.2-0.6,0-0.6-0.2-1.2c0-1.3-1.4-4.8-0.7-4.2c-0.2-0.6-0.3-1.2-0.5-1.8   c-0.1-0.3-0.2-0.3-0.2-0.6c-0.2-0.8-0.7-2.1-0.5-2.2c0.3,0.7,0.7,1.8,0.9,2.8c0.3,1,0.4,2.1,0.6,2.9c0.3,0.4,0.7,1.3,0.9,2.7   l0.1,0.4c0.3,1.6,0.5,2.5,0.8,4c0,0.3,0.1,0.5,0.1,0.8c0.1,0.7,0.2,1.3,0.3,2c0.1,0.8,0.2,1.8,0.2,2.7c0.1,0.9,0.1,1.7,0.1,2.2   c-0.2-0.4-0.2-1.7-0.4-2.2c0-0.6-0.1-0.6-0.2-1.2c-0.1-1.2-0.3-2.6-0.5-4c-0.2-1.4-0.4-2.6-0.6-3.4c-0.1-0.5-0.5-2-0.4-1.4   c0.1,1.1,0.7,3.4,0.8,5l0,0.2c0.1,1.2,0.5,3.2,0.5,4.6c0.2,1,0.2,2,0.3,2.8c0,0.9,0.1,3.3,0.3,4.2l0,0.2c0,1-0.1,2.1,0,3.6   c0.1,1.4-0.1,2.4-0.1,3.6c0,0.9-0.1,1.2-0.1,2c0,0.6-0.1,1.2-0.1,1.8c-0.2,1.4-0.2,1.8-0.4,3.4c-0.3,1.1-0.3,1.8-0.5,3l-0.1,0.8   c-0.3,1.8-0.6,3.3-1,4.9c-0.3,1.2-0.5,2.2-0.8,3.2c-0.1,0.5-0.2,1-0.4,1.5c-0.2,0.5-0.3,1.1-0.5,1.7c-0.5,1.5-0.9,2.8-1.4,4.4   c-0.1,0.4-0.2,0.4-0.3,0.7l-0.2,0.6c-0.4,1.5-1,2.9-1.7,4.4c-0.6,1.5-1.3,2.9-2,4.3c-0.7,1.4-1.4,2.8-2.1,4.2   c-0.6,1.4-1.3,2.6-1.9,3.9c0.1-0.1,0.4-0.6,0.3-0.5c0,0.2-0.3,0.6-0.7,1.3c-0.4,0.6-0.9,1.5-1.5,2.3c-1.1,1.6-2.4,3.4-3,4.1   c0.1-0.3,0-0.4,0.2-0.6c0.9-0.9,1.8-2.3,2.3-3.5c-1,1.4-1.8,2.8-2.8,4c-1,1.2-1.8,2.4-2.8,3.6c-0.9,1.1-1.7,2.3-2.6,3.3   c-0.9,1-1.7,1.9-2.5,2.5c-0.5,0.8-1.9,2.1-2.9,3.3l-0.3,0.3c-1.5,1.5-2.4,2.2-3.9,3.5c-0.1,0.3,0.7-0.6,0.6-0.3   c0,0.1-0.2,0.3-0.2,0.3c-1.2,1-0.4,0.5,0.3-0.2c0.6-0.4,2.2-1.9,2.7-2.4c0.3-0.2,0.5-0.5,0.7-0.7c1.4-1.2,1.2-1.5,2.6-2.8   c0.2,0.2,1.1-0.8,1.1-0.3c0.8-0.8,1.6-1.7,2.4-2.5c0.8-0.8,1.4-1.7,2-2.5c-0.7,0.8-1.7,2.2-2.1,2.2c1-1.3,1.1-1.3,2.2-2.6   c1.2-1.6,1.6-1.9,2.7-3.5c0.5-0.7,1.2-1.7,1.4-1.7c-0.4,0.9-1.6,2.1-2.1,3.2c0.9-1.1,2.2-2.8,2.6-3.6c-0.2,0.3-0.3,0.4-0.3,0.2   c1.4-2.1,2.6-3.9,3.7-5.8c0.5-0.9,1.1-1.8,1.6-2.6c0.5-0.9,1-1.7,1.5-2.6c-0.1,0.4-0.7,1.3-0.7,1.7c-0.3,0.8-1.1,2.2-1.6,2.8   c-2.4,4.6-5.2,7.5-6.8,10.6c0.1-0.2,0.3-0.4,0.2-0.1c-0.2,0.3-1.3,1.3-1.4,1.8c1-1.1,2-2.4,3-3.8c1.1-1.3,2.1-2.9,3.1-4.3   c0.3-0.7,1-1.4,1.4-2.2c0.1,0,0.5-0.4,0.5-0.6c-0.1,0.2-0.1,0.1-0.1-0.1c0.4-0.7,0.8-1.4,1.3-2.2c0.4-0.7,0.8-1.5,1.3-2.4   c0.4-0.8,0.9-1.7,1.4-2.6c0.4-1,0.9-2,1.4-3.1c0.3-0.7,0.7-1.5,1-2.3c0.3-0.8,0.6-1.5,0.8-2.1l0.2-0.4c0.6-1.3,1.3-3.3,1.7-4.6   l0.1-0.2l0,0c0.1-0.3,0.2-0.5,0.2-0.8l0.2,0.1l0.2-0.6l0.1-0.4l0,0l0.4-1.4c0.1-0.3-0.2-0.1-0.1-0.4c0.5-1.3,0.8-3.4,1.3-4.7   c0.2-0.2-0.4,1.8-0.1,1.2c0.2-1.2,0.5-1.8,0.7-3c0.7-3,1.5-9,1.6-12.3c0.3-1.4,0.3-2.7,0.4-3.9c0-0.6,0.1-1.3,0-1.9   c0-0.6-0.1-1.3-0.1-1.9c0.1-0.4,0.2-0.9,0.2-1.4c0-0.1-0.1-0.6-0.1-1.1c0-0.5,0-1,0-1.1c0.2,0,0.2,0.5,0.3,0.8c0.1-0.4,0-1.4-0.1-2   l0.4,0l0.1,1.6l0,0.4c0,0.9,0,1.8,0,2.7c0,0.8,0,1.6,0,2.4c0,0.8-0.1,1.6-0.1,2.5c-0.1,0.4-0.1,1.2-0.2,2.1   c-0.1,0.8-0.1,1.6-0.1,2.1c-0.1,1.2-0.2,2.6-0.5,4c-0.2,1.4-0.4,3-0.7,4.6l0,0c-0.4,0.9-0.6,3.6-1.2,5.2c-0.1,0.2-0.2,0.2-0.3,0.1   c0-0.4,0.2-1.2,0.4-1.9c0.2-0.7,0.3-1.5,0.3-1.9c-0.1,0.5-0.2,1-0.3,1.6c-0.1,0.6-0.3,1.2-0.4,1.8c-0.3,1.2-0.6,2.6-1,3.9   c-0.4,1.3-0.8,2.6-1.1,3.8c-0.4,1.2-0.8,2.2-1.2,3.1c-0.1,0.6-0.2,1.1-0.3,1.6c0.4-1,0.8-2.1,1.2-3.1c0,0,0.4-0.4,0.2,0.1   c-0.3,0.9-0.6,1.7-0.9,2.6c-0.3,0.8-0.7,1.6-1,2.4c-0.4,0.9-0.7,1.8-1.1,2.6c-0.4,0.8-0.7,1.6-1.1,2.3c-0.7,1.5-1.5,2.9-2.2,4.3   c-0.4,0.8-0.6,1.3-1.2,2.2c-0.1,0.2-0.2,0.4-0.3,0.5c-1.1,1.8-1.5,2.6-2.5,4c-0.5,0.5-1.8,2.5-2.1,3c-0.1,0.2-0.2,0.3-0.4,0.5   c-0.5,0.8-0.9,1.2-1.2,1.7c0.4-0.5-0.1,0.2,0,0.3c3.5-4.6,5.9-8,8.6-13c0.3,0.2-0.5,1.5-0.8,2.4c-0.1,0.2-0.3,0.5-0.4,0.7l-1.5,2.5   c-0.2,0.3-0.6,0.9-0.9,1.5c-0.4,0.6-0.8,1.2-0.9,1.5l-0.1,0.2c-0.4,0.5-1.2,1.6-2,2.8c-0.8,1.2-1.8,2.4-2.4,3.2   c-0.4,0.4,0.1-0.3,0.1-0.4c-0.6,0.7-1.2,1.6-2,2.4c-0.7,0.9-1.5,1.8-2.4,2.8l-0.6,0.6l-0.8,0.9l-0.1,0.2c-0.4,0.4-0.9,0.8-1.4,1.3   c-0.5,0.5-1,0.9-1.4,1.4c-3.2,3.3-6.7,6.2-10.4,8.9c0-0.2,0.4-0.4,0.7-0.7c0.3-0.3,0.7-0.6,0.9-0.8c0.4-0.3,0.6-0.5,0.8-0.7   c-0.5,0.4-1.6,1.3-2.3,1.8c-0.7,0.5-1.6,1.1-2,1.4c-1,0.9-2.4,1.6-3.7,2.5c-0.4,0.1-0.2-0.1,0-0.3c-0.5,0.3-1,0.7-1.5,1   c-0.5,0.4-1.1,0.7-1.9,1.1c-0.5,0.3-1.2,0.8-1.9,1.2c-0.7,0.4-1.5,0.8-2.2,1.2c-1,0.5-2,1.1-3.1,1.6l-1.1,0.5   c-0.7,0.2-1.6,0.7-2.6,1.1c-1.8,0.7-2.2,1-3.9,1.7c-0.1,0.1-0.3,0.1-0.4,0.1c-1.2,0.4-2.3,0.8-3.5,1.2c-1.1,0.4-2.3,0.7-3.5,1   c-1,0.2-3.3,0.8-4.5,1.2c-0.3,0.1-0.6,0.1-0.9,0.2c-0.4,0.1-0.8,0.2-1.1,0.3l-0.2,0c-1.6,0.2-4.4,0.9-5.4,0.9   c-0.9,0-1.9,0.2-3.1,0.4c-1.1,0.1-2.4,0.3-3.6,0.4l-0.2,0c-1.1,0-2.9,0.1-4.5,0.2l-0.2,0c-0.5-0.1-2,0-2.8,0l-1,0   c0.1-0.1-1.1,0.1-0.8-0.1c3.6,0.1,9.3-0.3,11.5-0.6c-0.4,0-0.5,0-0.4-0.1c0.8-0.2,1.6-0.2,2-0.3c1.2-0.2,0.1,0-0.4,0   c-1.1,0.1-2.6,0.3-4,0.4c-1,0-2.4,0.2-2.8,0.2c-0.8,0-2.3,0-2.8,0.1l-0.2,0c-0.7,0-2-0.1-2.4,0.1c-0.8,0.1-2.1,0.1-2.8,0   c-0.5,0-0.9,0-1.4-0.1c-1.3,0-2.5-0.1-3.7-0.2c-1.2-0.1-2.3-0.2-3.5-0.4c-1.8-0.5-3.4-0.7-5.7-1.2l-0.2,0l-0.2,0   c-0.3-0.1-0.6-0.2-0.6-0.3c1,0,2.5,0.3,3.8,0.4c1.1,0.1,3,0.3,4.4,0.6c1.9,0.1,4.1,0.4,5.8,0.3c-0.6,0-1.1-0.1-1.6-0.1   c-0.5-0.1-1-0.1-1.6-0.2l-0.4,0c-0.9-0.2-2.6-0.2-3.8-0.5c-1-0.2-1.9-0.3-2.8-0.4c-0.9-0.1-1.7-0.3-2.6-0.5   c-0.6-0.3-2.2-0.4-3.1-0.7l-1.4-0.3c-0.2-0.2-1.3-0.3-1.9-0.5c-1-0.2-1.4-0.5-2.1-0.7c0.1-0.1-1.3-0.3-0.9-0.4   c0.7,0.2,1.8,0.6,1.9,0.5c-2.1-0.6-3.9-1.1-5.7-1.7c-0.9-0.3-1.8-0.6-2.6-0.9c-0.9-0.3-1.7-0.7-2.6-1c0.3,0.1,0.7,0.3,0.7,0.3   c-1-0.3-0.7-0.4-1.5-0.6c-1.2-0.3-1.9-0.8-3.1-1.3c-0.5-0.3-1.2-0.6-2-0.9c-0.7-0.4-1.5-0.8-2.1-1.1c-1.1-0.6-1.7-1-2.9-1.7   l-0.2-0.1c-0.6-0.4-1.6-1-2.7-1.7c-1.1-0.7-2.3-1.5-3.3-2.2c-0.2-0.2-0.6-0.4-0.9-0.7c-0.4-0.3-0.7-0.5-1-0.8l-2.1-1.5   c-0.2-0.2-0.6-0.5-1-0.8c-0.4-0.3-0.9-0.7-1.2-1c-0.9-0.7-1.8-1.4-2.7-2.2c-0.9-0.8-1.8-1.6-2.9-2.7l-0.1-0.1   c-1-1.2-2.2-2.4-3.4-3.6c-1.1-1.3-2.3-2.5-3.2-3.7c0-0.1-0.3-0.4-0.1-0.4c0.6,0.6,0.9,0.9,1.3,1.5c0.7,0.8,1.4,1.6,2.1,2.3   c0.7,0.7,1.3,1.3,1.8,1.8l0.6,0.6c0.7,0.8,2.7,2.7,4.2,3.9c-1.2-1.3-2.7-2.5-3.8-3.7c-0.6-0.5-0.4-0.4-1-1l-1-1   c-0.7-0.6-1.6-1.7-2.2-2.5l-1.3-1.5c-0.4-0.4-0.8-1-1.4-1.6c-0.7-0.9-1.5-1.8-2.2-2.8c-2.1-2.7-4.8-6.9-6.2-9.6   c-0.2-0.4-0.3-0.6-0.2-0.6c0.3,0.4,1.1,2,0.9,1.5c-0.6-0.9-0.8-1.5-1.3-2.2c0-0.1-0.1-0.1-0.1-0.2c0-0.2-0.5-1-0.4-1.1   c-0.1,0.3-0.6-1.2-0.8-1.1l-0.2-0.3c-0.1-0.3-0.3-0.7-0.1-0.6c-0.1-0.3-0.3-0.6-0.4-0.9c-0.6-1.2-1.1-2.3-1.7-3.5   c-0.5-1.2-1-2.5-1.7-4.1l-0.1-0.2c-0.2-0.4-0.2-0.9-0.5-1.5c-0.4-1.1-0.8-2.2-1.2-3.3c-0.2-0.4-0.4-1.4-0.5-1.5l-0.1-0.2   c-0.1-0.5-0.5-1.8-0.8-3l0,0c-0.3-1.3-0.4-2-0.8-3.3c-0.3-1.3-0.5-2.2-0.7-3.1l-0.1-0.6c-0.2-1.5-0.5-3.5-0.8-5.3   c0-0.2,0-0.4-0.1-0.6c-0.2-2-0.4-3.8-0.5-5.6c0-0.9-0.1-1.8-0.1-2.7c0-0.9,0-1.9,0-2.9l0-1.7c0-0.6,0-1.1,0.1-1.7   c0.1-1.2,0.1-2.4,0.2-3.5l0.2-2c0.1-0.7,0.1-1.5,0.2-2.2l0.3-2.2l0.1-0.6c0.2-1.6,0.4-2.6,0.7-3.9c0.3-1.7,0.7-3.3,1.1-5   c0.1-0.5,0.2-1,0.3-1.6c0.2-0.6,0.4-1.2,0.6-1.8c0.3-1,0.7-2.4,0.9-3c0.8-2,1.2-4,1.9-5.2l0.9-2.2c0.4-1.1,1.1-2.6,1.5-3.2   c0.3-0.7,0.9-1.9,1.1-2.3l0.1-0.2c0.5-0.7,1.5-2.7,1.8-3.5c0.8-1.3,1.4-2.3,1.9-3.3c0.6-1,1.2-1.8,1.9-2.9c0.4-0.6,0.8-1.2,1.2-1.8   c0.1-0.4,0.3-0.4,0.6-0.8c0.8-1.1,1.9-2.5,2.4-3.3l0.1-0.2c0.6-0.6,1.9-2.2,2.4-2.9c0.8-1,1.5-1.7,2.2-2.5c0.7-0.7,1.3-1.4,2.1-2.2   c0,0.1,0.1,0.1,0,0.2c-0.3,0.3-1.1,1-1.1,1.2l-0.1,0.1L31.7,35c0.1,0,0.1,0.1,0,0.3c-0.5,0.6-1.6,1.9-2.1,2.4   c-0.9,1.2-1.6,2-2.2,2.8l-0.7,0.9c-0.5,0.5-1.4,1.7-1.8,2.3c-0.3,0.5-0.3,0.4-0.8,1.1c-1.4,2.1-2.9,4.2-4.1,6.4l-0.1,0.2   c-0.3,0.6-0.8,1.3-1.2,2c-0.4,0.7-0.7,1.4-0.9,1.9l-0.5,0.9c-0.6,1-1.1,2.1-1.5,3.2c-0.5,1-1,2-1.3,2.8l-0.1,0.2   c-0.4,1-0.5,1.5-1,2.6c-0.3,1-0.8,2.2-1.3,3.5c-0.7,1.9-1.2,3.5-1.8,5.8c-0.1,0.2-0.1,0.4-0.1,0.6c-0.4,1.6-0.7,3-1,4.4   c-0.2,1.4-0.4,2.6-0.6,4.1c-0.1,1.2-0.3,2.5-0.4,3.8c-0.2,1.3-0.2,2.5-0.4,3.6l0,0c-0.1,1-0.3,1.1-0.3,2.3c0.3,2.5-0.5,7,0.2,9.6   l0,0.6c0.1,0.5,0,1.4,0.1,1.6c0.1,0.6,0,0.4,0.1,1c0,1.3,0.3,3.3,0.5,4.3c0-0.9,0.1,0.1,0.3,0.4c0-0.2,0-0.2,0.1-0.2   c0-0.9-0.2-2.4-0.4-3.3c-0.2-1.1-0.2-2.5-0.3-4.1c-0.1-1.1-0.1-2-0.1-2.8c0-0.8,0-1.6,0-2.6l0-0.4c0-0.8,0.1-2.1,0-2.5   c0-0.8,0-1.6,0.1-2.3c0.1-0.8,0.1-1.5,0.2-2.2c0.1-0.7,0.1-1.5,0.2-2.2c0.1-0.7,0.2-1.4,0.3-2.1c0-0.6,0.3-1.6,0.2-1.9   c0-0.1,0-0.3,0.1-0.4c0.1-0.6,0.4-1.6,0.3-1.9c0.2-1.4,0.5-2.6,0.8-3.7c0.3-1.2,0.5-2.3,1-3.6c0.3-1.2,0.9-2.8,1.1-3.7   c0.9-2.5,1.5-4.4,2.4-6.6c0.2-0.2,0.7-1.6,0.7-1.8l0.7-1.4c0.1-0.3,0.3-0.6,0.4-0.9l0.9-1.9l0.4-0.7c0.9-1.7,1.7-3.3,2.7-4.9   c0.4-0.8,1.2-2,1.4-2.5c0.5-0.8,1.2-1.7,1.7-2.6c0.3-0.4,0.6-0.9,0.8-1.3c0.3-0.4,0.5-0.8,0.8-1.1l0.2-0.3c0.6-0.7,1.3-1.7,2-2.6   c0.8-0.9,1.5-1.9,2.1-2.6l0.1-0.2c0.5-0.5,1.9-2,2.3-2.6l0.9-1c0.2-0.1,1.3-1.2,1.4-1.4l0.8-0.8c0.3-0.2,0.2-0.2,0.6-0.5l0.4-0.4   c0.3-0.3,0.6-0.6,1-0.9c1.6-1.4,3.1-2.7,4.7-4c0.8-0.6,1.5-1.3,2.3-1.9c0.8-0.6,1.6-1.2,2.3-1.8l0.2-0.1c0.2,0,1-0.7,1.5-1   c1.1-0.7,2.2-1.5,3.4-2.2c1.2-0.7,2.3-1.3,3.2-1.9c0.7-0.3,1.4-0.6,1.6-0.8c0.4-0.4,1.1-0.5,1.7-0.9c0.3-0.1,0.6-0.3,1-0.5   c0.4-0.2,0.8-0.4,1.3-0.6c0.7-0.3,2.5-1.2,3.2-1.5c0.2-0.1,2.3-0.9,2.5-1c1.3-0.5,2.2-0.9,3.3-1.2c1.8-0.7,3.7-1.2,5.5-1.8l0.2-0.1   c0.9-0.3,1.9-0.5,2.8-0.7L78,8.9c0.8-0.2,1.4-0.4,1.5-0.4l0.2,0c1.4-0.1,3.3-0.7,4.2-1c-0.1,0-0.7,0.1-0.8,0.1   c0.5-0.1,1.5-0.3,1.7-0.2c-0.3,0.1-0.7,0.1-0.8,0.2c2.4-0.4,4.4-0.7,6.5-0.9c2-0.3,4-0.4,6.3-0.6c-5.2,0.1-11.1,0.8-15.5,1.7   c0-0.1,0.1-0.1,0.2-0.2c-0.9,0.2-1.8,0.3-2.7,0.6c-0.2,0.1-0.1,0.2-0.5,0.3c-1.4,0.3-3.5,0.9-4.6,1l-0.4,0.1   c-0.6,0.1-2.5,0.6-3,0.9l-0.6,0.2c-0.7,0.2-1.8,0.6-2.8,0.9c-1.2,0.5-2.3,0.9-3.2,1.3c-1,0.4-1.9,0.8-2.7,1.2   c-0.9,0.4-1.7,0.8-2.5,1.2c-0.8,0.4-1.7,0.8-2.6,1.3c-0.4,0.2-1,0.5-1.7,0.8c-0.6,0.4-1.3,0.8-1.6,1c-4.1,2.4-6.5,4.2-9.4,6.3   c-0.5,0.4-1,0.8-1.5,1.2l-0.2,0.1c-1,0.7-2.2,1.7-3.4,2.8c-1.2,1.1-2.3,2.1-3.3,3c0-0.3,1.3-1.4,1.6-1.7c-0.6,0.5-0.2,0,0-0.3   c5.6-5.2,12.2-9.9,18-13l0.2-0.1l1.9-1l0.3-0.2c0.4-0.1,0.8-0.3,1.2-0.6c0.4-0.2,0.9-0.5,1.6-0.8c1-0.4,1.8-0.8,2.5-1.2   c0.8-0.3,1.6-0.6,2.5-1.1c1.4-0.6,2.9-1.1,4.4-1.7c1.5-0.6,3.1-1,4.7-1.5l0.4-0.1c1.1-0.3,2.2-0.6,3.2-0.8c0.8-0.2,1.5-0.4,2.3-0.5   l1.9-0.4c5.5-1,9.9-1.7,15.2-1.9l2.6,0l2,0c0.6,0,1.7,0.1,2,0c1,0.2,2.1,0,3.3,0.2c1.9,0.1,3.4,0.2,5.3,0.4l2.7,0.4   c1.9,0.4,3.8,0.7,5.1,0.8c-0.6-0.2-2.4-0.4-1.7-0.5c1.2,0.1,2.5,0.4,3.7,0.7c0.6,0.1,1.3,0.3,1.9,0.4c0.6,0.1,1.2,0.3,1.8,0.4   c1,0.3,2,0.6,3,0.9c0.8,0.1-2.8-0.9-3-1c-4.4-1.2-6.2-1.6-10.7-2.3c-1.1-0.1-2.6-0.4-3.3-0.4c-1.2-0.2-2.8-0.3-3.8-0.3l-1.6-0.1   c-0.1,0-0.3,0-0.4,0l-3.8-0.2c-1.1-0.1-2.6,0.1-3.4-0.1c-0.1-0.2,1.1-0.1,1.4-0.2c1.6-0.1,3.1,0,5.2,0.1c0.4,0.1,1.6,0.1,2.4,0.2   c0.8,0,1,0.2,1.8,0.2c0.7,0,2,0.3,2.4,0.2c1.4,0.2,2.7,0.3,3.9,0.5c1.3,0.2,2.6,0.4,4.3,0.8c1.4,0.3,2.6,0.5,3.7,0.7   c1,0.2,2.1,0.5,3.3,0.8c0.6,0.1,1.6,0.5,1.9,0.5c1.6,0.6,3,0.9,4.3,1.4c1.3,0.5,2.7,0.9,4.2,1.5c1.1,0.4,2.3,1.1,3.1,1.3   c-0.4-0.2,0-0.3,0.3-0.2c1,0.4,1.8,0.7,2.9,1.3c0.6,0.3,0.5,0.1,0.8,0.2l0.4,0.2c0.6,0.1,1.5,0.5,2.1,0.8c1.4,0.4,4.2,2.2,5.2,2.4   c0.5,0.2,1.2,0.7,1.6,0.8c0.5,0.2,1,0.6,1.3,0.6c0.4,0.2,0.1-0.3-0.1-0.6c-0.2-0.3-1-0.9-1.9-1.5l0,0c1.5,0.9-1.2-0.9-1.4-0.9   c-0.8-0.5-2.1-1.3-2.7-1.5l-0.2-0.1c-1-0.6-2-1.2-2.7-1.4c-1.4-0.7-2.2-0.9-3.7-1.8c-1-0.4-2-0.9-2.9-1.2l-0.4-0.2   c-0.9-0.4-1.8-0.8-2.3-0.9l-0.6-0.2c-0.4-0.2-0.7-0.3-1-0.3c-0.9-0.3-1.7-0.7-2.3-0.8c-1.3-0.3-3-0.9-4.5-1.3   c-0.7-0.2-1-0.2-1.4-0.3c-0.9-0.2-1.4-0.3-2-0.4c-1.2-0.4-1.9-0.4-3-0.6c-0.9-0.3-1.2-0.2-2-0.4c-0.7-0.1-2-0.4-3-0.5l-1.2-0.2   c0,0-0.2-0.1-0.4-0.1c-0.2-0.2-1-0.3-1.4-0.5c-0.4-0.1,0.1-0.3-0.6-0.4c-0.2,0-0.2-0.1-0.4-0.1c-0.5-0.1-1.1-0.2-1.8-0.3l-0.2,0   c-0.7-0.2-2.8-0.3-3.5-0.3c-0.3,0-0.7-0.1-0.8,0c-1.2-0.1-2.3,0-3.3,0c-1.1,0-2.1,0-3.2,0.1l-1.6,0c-1,0-1.1-0.3-2.1-0.3   c-0.6,0-1.4,0-2.3,0.1c-1,0-2.5,0-3.5,0.1c0-0.1-0.9,0.1-1.2,0.1c-0.7,0-1.7,0.1-2.7,0.2c-1,0.2-2,0.3-2.6,0.5   c-0.1,0-0.3,0-0.4,0.1c-0.7,0.1-1.4,0.2-2,0.3c-1.8,0.4-3,0.5-4.4,0.8c-0.8,0.2-1.9,0.4-2.8,0.6c-0.4,0-1.5,0.4-2.2,0.6L72,4.9   C71.9,5,71.7,5,71.6,5c-0.3,0-1.4,0.4-2,0.5c-0.2-0.1-1.1,0.4-1.6,0.5l-1,0.3c-0.6,0.1-1.3,0.3-2.2,0.7c-0.6,0.1-2,0.8-2.9,1.1   c-0.6,0.3-0.8,0.2-1.5,0.6l-1.1,0.5c-1.2,0.5-2.9,1.3-4.1,1.9c-1.6,0.8-3.5,1.7-5.1,2.7c-0.5,0.2-1.6,0.9-2.3,1.3   c-0.5,0.3-1.1,0.8-1.4,0.9c-1,0.7-1.6,1-2.6,1.7c-0.6,0.5-1.1,0.8-1.5,1.1l0,0c-0.5,0.3-1,0.6-1.7,1.1c-0.7,0.5-1.4,1.1-2.1,1.7   c-0.2,0.2-0.4,0.3-0.5,0.4l-0.5,0.4c-0.3,0.1-1.1,0.9-1.6,1.3L35.4,24l-0.2,0.1c-1.1,0.9-2.1,1.8-3.3,2.9l-0.1,0.1l-0.1,0.1   c-0.7,0.5-1.5,1.3-2.4,2.2c-0.9,0.8-1.7,1.8-2.5,2.6c-0.6,0.6-1.1,1.2-1.7,1.9c-0.5,0.4-1.7,2.1-2.2,2.5l-0.7,0.8   c-1.2,1.4-2.4,3.1-3.7,4.8c-0.3,0.2-0.8,1.2-1.2,1.7L17.3,44c-0.4,0.5-0.8,1-1.2,1.6c-0.4,0.6-0.8,1.3-1.1,1.8L14.7,48l-0.5,0.9   c-0.2,0.4-0.5,0.8-0.7,1.3c-0.6,1-1.3,2.2-1.9,3.5c-0.4,0.8-0.8,1.6-1.2,2.4c-0.1,0-0.4,0.8-0.6,1.1c-0.4,0.6-1,2.1-1.4,3l-0.4,1   c-0.3,0.4-0.7,1.6-1,2.3l-0.2,0.6c-0.3,0.6-0.7,2-1.1,3c-0.5,1-0.8,2.4-1.3,3.8c-0.2,0.5-0.5,1.3-0.7,2.1c-0.2,0.8-0.4,1.6-0.6,2.2   L3,75.9l-0.3,1.4c-0.1,0-0.1,0.5-0.2,0.8c-0.2,0.4-0.3,1.7-0.5,2.5l0,0.2C1.7,82,1.5,83,1.3,83.9c-0.2,0.9-0.3,1.8-0.5,2.9   l-0.1,0.6l0,0.2c-0.1,0.3-0.2,1.5-0.2,2.1l-0.1,1.7c-0.2,0.5-0.1,1.9-0.2,2.7c0,1.1-0.2,1.9-0.1,3.2l0,0.2c-0.1,0.5,0,1.9,0,2.7   c-0.1,0.1-0.1,0.5,0,0.9c0,0.4,0.1,0.9,0.1,1.2c0.1,1.2,0,1.8,0.1,3l0,0.6c0,1.2,0.3,3.3,0.4,4.8l0,0.2c0,0.7,0.3,2.3,0.5,3.3   l0.1,0.4c0,1.1,0.6,3.1,0.8,4.6c0,0.5,0.4,1.9,0.6,2.7l0.7,2.9l0.4,1.2c0.2,1,0.9,3.3,1.3,4.2l0.1,0.2c-0.1,0.1,0.1,0.5,0.2,0.8   c0.2,0.7,0.5,1.6,0.9,2.6c0.4,0.9,0.8,1.9,1.1,2.8c0.3,0.7,0.6,1.4,0.9,2.1l0.9,2c0.2,0.6,1,2.4,1.4,2.9l0.1,0.2l0.3,0.6l1.3,2.4   c0.4,0.8,0.9,1.6,1.4,2.4c0.8,1.2,0.9,1.6,1.8,2.9l0.1,0.2c1.6,2.6,3.8,5.6,5.9,8.3c0.4,0.5,0.6,0.6,1.1,1.3   c0.1,0.2,1.1,1.5,1.3,1.6c0,0.1,0.1,0.1,0.1,0.2l0.3,0.3c0.7,0.8,1.1,1.1,1.7,1.9c0.8,0.8,1,1.2,1.7,1.9l0.6,0.6   c1,1.1,2.1,2.3,3.4,3.5c1,0.9,2,1.8,3,2.7c0.3,0.3,0.7,0.5,1,0.8c0.8,0.7,1.2,0.9,2,1.6c0.5,0.4,1.4,1.2,1.7,1.2l2,1.5   c0.8,0.6,1.6,1.1,2.4,1.7l2.5,1.6c0.5,0.3,1,0.6,1.4,0.9c0.7,0.5,1.7,1.2,2.9,1.8c0.1,0.2,1.6,1,1.9,1c0.3,0.2,1.7,1,2.1,1.1   c0.8,0.5,1.6,0.8,2.1,0.9c0.1,0.1,0.3,0.1,0.4,0.2l1.5,0.7l0,0c-0.2-0.1-0.4-0.2-0.4-0.1c0.3,0.2,0.1,0.2-0.1,0.1l0.6,0.3   c0.7,0.3,1.5,0.8,2,0.8c0.2,0.1,0.3,0.1,0.4,0.1c0.3,0.1,0.6,0.2,0.8,0.3c0.3,0.1,0.7,0.3,1,0.4c0.4,0.2,0.8,0.3,1.2,0.5   c0.6,0.3,1.3,0.5,2,0.7c0.9,0.3,1.5,0.5,2.2,0.8c1.2,0.5,2.7,0.9,3.6,1.3c0.8,0.2,1.6,0.5,2.4,0.7c1.2,0.4,2.8,1,4.5,1.2   c0.9,0.1,2.1,0.3,3,0.4c0.2,0,0.4,0.1,0.6,0.1c0.8,0.1,1.2,0.1,1.7,0c1.1,0.1,2.7,0.3,4.3,0.5c1.6,0.2,3.2,0.3,4.4,0.4l0.2,0   c0.4,0,0.8,0,1.3,0.1c0.7,0.1,2.2,0.1,2.7,0.3c0.5,0,1,0.1,1.7,0.1c1.9,0,3.2,0,5.3,0c0.5,0.1,2.5-0.1,3-0.2l0.6,0   c0.3,0.1,2-0.1,2.3-0.2l0.2,0c1.3-0.4,1.9-0.2,3.4-0.5c0.3-0.1,1.5-0.3,1.9-0.3l0-0.1c-0.1-0.1-0.5,0-0.8,0.1   c0-0.1,0.1-0.1,0.2-0.2c1.3-0.2,2.6-0.3,3.5-0.6l0.2,0c1.6-0.4,3.6-0.7,5.6-1.3c1-0.2,2-0.5,2.9-0.7c0.9-0.3,1.8-0.6,2.6-0.8   c1.4-0.4,3.3-1,4.4-1.5l0.4-0.1c0.3,0.1,0.8-0.4,1.2-0.4c0.9-0.3,1.7-0.7,2.5-1l0.4-0.2c0.7-0.1,2-0.8,2.5-1.1l0.4-0.2   c1.1-0.4,3.4-1.3,4.2-2c0.2-0.2,0.6-0.4,1.1-0.6c1.2-0.5,1.9-0.8,2.8-1.5c1-0.6,2-1.2,3-1.8c1-0.6,1.9-1.2,2.8-1.8   c1.8-1.1,3.5-2.4,5.1-3.6l0.2-0.1c0.9-0.7-0.2-0.2,0.7-0.9c0.9-0.7,1.9-1.6,2.6-2.1l0.2,0.2c1.2-0.8,2-1.6,2.9-2.5   c1.3-1.1,1.4-1.6,2.3-2.2c1.1-1.1,2.3-2.3,3.4-3.4c1-1.2,2.1-2.3,3.2-3.4c0-0.1,0.1-0.1,0.1-0.2l1.9-2.3l0.1-0.2   c1-1.2,1.8-2.4,2.7-3.5c0.4-0.6,0.8-1.1,1.3-1.7c0.4-0.6,0.8-1.1,1.2-1.7c-0.1,0.4-0.2,0.6,0.4-0.3c0.1-0.4,0.2-0.3,0.6-0.9   c1-1.2,1.5-2.7,2.4-3.9l0.4-0.7c0.4-1,1.3-2.7,1.9-3.5c0.1-0.3,0.2-0.6,0.3-0.8l0.1-0.2c0.6-1.1,0.8-1.4,1.2-2.5l0.1-0.2l0,0   c0.1-0.3,0.3-0.7,0.4-0.7c0.1,0-0.2,0.5,0,0.4c0.1-0.5,0.6-1,0.7-1.6c-0.2,0.3-0.3,0.4-0.3,0.3c0.6-1.6,1.4-3.4,2.1-5.1   c0.8-1.7,1.3-3.4,1.5-4.5c-0.4,1.1-0.6,1.9-1,2.5c0.5-1.7,1.1-3.5,1.6-5.3c0.3-0.9,0.5-1.9,0.8-2.8c0.2-1,0.5-1.9,0.7-2.9   c1-3.8,1.7-7.8,2-11.2L198.6,109.7z M6.8,97.9C6.8,97.9,6.8,97.9,6.8,97.9C6.8,97.9,6.8,97.9,6.8,97.9C6.8,97.9,6.8,97.9,6.8,97.9z    M6.8,97.6c0-0.1,0-0.2,0-0.2C6.8,97.4,6.8,97.5,6.8,97.6z M6.8,98.2C6.8,98.2,6.8,98.2,6.8,98.2c0,0.8,0,1.5,0,2.3   C6.8,99.7,6.8,98.9,6.8,98.2z M118.6,193.4c-0.1,0-0.3,0.1-0.4,0.1C118.4,193.4,118.5,193.4,118.6,193.4z M119.1,193.1   c-0.1,0.1-0.3,0.1-0.4,0.2C118.9,193.3,119,193.2,119.1,193.1z M121.2,194.9C121.2,194.9,121.2,195,121.2,194.9   C121.2,195,121.2,194.9,121.2,194.9z M159.4,176.5c0.1,0,0.1-0.1,0.2-0.1l0,0C159.6,176.5,159.5,176.5,159.4,176.5z M159,176.9   c-0.2,0.1-0.3,0.2-0.5,0.3C158.7,177.1,158.8,177,159,176.9z M140.2,188.5c0.9-0.5,2.2-1,3.1-1.6c0,0,0,0,0,0   C142.4,187.6,141.1,188,140.2,188.5z M69.4,190.1C69.4,190.1,69.4,190.1,69.4,190.1C69.4,190.1,69.4,190.1,69.4,190.1z M70.1,191.2   C70,191.1,70,191.1,70.1,191.2C70,191.1,70,191.1,70.1,191.2z M67.3,190.2c-0.1,0-0.2-0.1-0.2-0.1   C67.2,190.2,67.2,190.2,67.3,190.2z M70.1,191.2C70.1,191.2,70.1,191.2,70.1,191.2C70.1,191.2,70.1,191.2,70.1,191.2   C70.1,191.2,70.1,191.2,70.1,191.2z M70.2,191.2C70.2,191.2,70.2,191.2,70.2,191.2C70.2,191.2,70.2,191.2,70.2,191.2L70.2,191.2z    M71,191.5C71,191.5,71,191.5,71,191.5C71,191.5,71,191.5,71,191.5z M70.9,191.4C70.9,191.4,70.9,191.4,70.9,191.4   C70.9,191.4,70.9,191.4,70.9,191.4z M69.5,190.4c0.1,0,0.2,0.1,0.4,0.1C69.8,190.4,69.7,190.4,69.5,190.4z M69.1,190.1   C69.1,190.1,69.1,190,69.1,190.1L69.1,190.1C69.1,190,69.1,190.1,69.1,190.1z M69.3,190.1C69.3,190.1,69.3,190.1,69.3,190.1   C69.3,190.1,69.3,190.1,69.3,190.1z M22.5,158.6c-0.1-0.1-0.2-0.2-0.3-0.4C22.3,158.4,22.4,158.5,22.5,158.6z M22.8,158.9   L22.8,158.9L22.8,158.9L22.8,158.9z M22.7,159C22.7,159,22.7,159,22.7,159C22.7,159,22.7,159,22.7,159z M22.8,159.2   C22.8,159.2,22.8,159.2,22.8,159.2C22.8,159.2,22.8,159.2,22.8,159.2z M35.3,170c-0.2,0,0.6,0.7,0.8,1C35.9,170.7,35,170,35.3,170z    M3.3,104.8c0,0,0,0.1,0,0.1C3.2,104.9,3.2,104.8,3.3,104.8z M3.2,105.2c0,0.1,0,0.1,0,0.2C3.2,105.3,3.2,105.2,3.2,105.2z    M3.3,105.9c0-0.1,0-0.1,0-0.2C3.3,105.8,3.3,105.8,3.3,105.9z M3.4,106.4c0-0.1,0-0.1,0-0.2C3.3,106.3,3.3,106.4,3.4,106.4z    M3.4,107C3.4,107,3.4,106.9,3.4,107C3.4,106.9,3.4,107,3.4,107z M3.6,107.8C3.6,107.8,3.7,107.7,3.6,107.8   C3.7,107.7,3.6,107.8,3.6,107.8z M3.6,107.9c0-0.1,0-0.2-0.1-0.4C3.5,107.7,3.6,107.8,3.6,107.9z M12.8,54.5   C12.8,54.5,12.8,54.5,12.8,54.5C12.8,54.5,12.8,54.5,12.8,54.5C12.8,54.5,12.8,54.5,12.8,54.5z M68.9,190   C68.9,190,68.9,190,68.9,190C68.9,190,68.9,190,68.9,190C68.9,190,68.9,190,68.9,190C68.9,190,68.9,190,68.9,190L68.9,190L68.9,190   z M67.6,189.4c0.1,0,0.2,0.1,0.3,0.1C67.8,189.4,67.7,189.4,67.6,189.4z M67.2,189.3c0.1,0,0.2,0,0.3,0   C67.4,189.3,67.3,189.3,67.2,189.3z M36.6,171.2c-0.2-0.1-0.4-0.3-0.5-0.4C36.3,171,36.4,171.1,36.6,171.2z M35.5,170.3   c0.2,0.2,0.3,0.3,0.5,0.5C35.8,170.6,35.7,170.4,35.5,170.3z M35.2,170C35.2,170,35.2,170,35.2,170C35.2,170,35.2,170,35.2,170   C35.2,170,35.2,170,35.2,170z M12.8,54.5c0.3-0.7,0.9-1.8,1.3-2.6C13.7,52.8,13,53.8,12.8,54.5z M12.1,55.6   c0.1-0.1,0.4-0.9,0.6-0.9C12.6,54.6,12.3,55.5,12.1,55.6z M12.3,55.5c0,0,0,0.1-0.1,0.1C12.3,55.6,12.3,55.5,12.3,55.5z M11.2,57.9   c0.1-0.2,0.2-0.4,0.3-0.6C11.4,57.4,11.3,57.7,11.2,57.9z M11.6,57c0.1-0.2,0.2-0.4,0.3-0.6C11.8,56.6,11.7,56.8,11.6,57z    M108.1,196.1c-0.1,0-0.1,0-0.2,0C108,196.1,108,196.1,108.1,196.1z M107.9,196c0.1,0,0.2,0,0.3,0.1l0,0   C108.1,196,108,196,107.9,196z M108.2,196.1c0.3,0,0.7,0,0.9,0.1C108.8,196.1,108.5,196.1,108.2,196.1L108.2,196.1z M108.2,195.9   C108.2,195.9,108.2,195.9,108.2,195.9C108.2,195.9,108.2,195.9,108.2,195.9z M109.1,196.2c0.1,0,0.1,0,0.2,0   C109.2,196.2,109.2,196.2,109.1,196.2z M109.3,196.3C109.4,196.3,109.4,196.3,109.3,196.3C109.4,196.3,109.4,196.3,109.3,196.3z    M109.4,196.3c0,0,0,0.1,0,0.1C109.4,196.4,109.4,196.4,109.4,196.3z M111.1,194.8L111.1,194.8L111.1,194.8L111.1,194.8z    M108.8,195.1c0,0,0.1,0,0.1,0C108.9,195.1,108.8,195.1,108.8,195.1z M97.4,195.2C97.4,195.2,97.4,195.2,97.4,195.2   C97.4,195.2,97.4,195.2,97.4,195.2z M97.4,195.1L97.4,195.1L97.4,195.1L97.4,195.1z M97.3,195C97.3,195,97.3,195,97.3,195   C97.3,195,97.3,195,97.3,195z M97.4,195C97.4,195,97.3,195,97.4,195C97.3,195,97.4,195,97.4,195z M97.3,195c0,0,0.2,0.1,0.1,0.1   l0,0C97.4,195.1,97.3,195,97.3,195z M96.2,195.1c-0.1,0-0.1,0-0.2,0C96,195.1,96.1,195.1,96.2,195.1z M86.4,194.1   C86.4,194.1,86.5,194.1,86.4,194.1C86.5,194.1,86.4,194.1,86.4,194.1z M20.6,41.6L20.6,41.6c0.1-0.1,0.1-0.2,0.2-0.3   c-0.1,0.1-0.1,0.1-0.1,0.2c0,0,0.1-0.1,0.1-0.2C20.7,41.4,20.6,41.5,20.6,41.6z M20.6,41.6C20.6,41.6,20.6,41.6,20.6,41.6   C20.6,41.6,20.6,41.6,20.6,41.6z M20.3,42C20.3,42,20.3,42,20.3,42C20.3,42,20.3,42,20.3,42C20.3,42,20.3,42,20.3,42z M19.9,42.5   c0-0.1,0.1-0.1,0.1-0.1C19.9,42.4,19.9,42.4,19.9,42.5z M20,42.3C20,42.3,20.1,42.3,20,42.3C20.1,42.3,20,42.3,20,42.3z M12.1,55.6   C12.1,55.6,12.1,55.6,12.1,55.6C12.1,55.6,12.1,55.6,12.1,55.6z M123.2,194.1C123.2,194.2,123.2,194.2,123.2,194.1   C123.2,194.2,123.2,194.2,123.2,194.1z M122.9,194.3C122.9,194.3,122.9,194.3,122.9,194.3C122.9,194.3,122.9,194.3,122.9,194.3z    M123.3,194c0,0,0,0.1-0.1,0.1C123.3,194,123.3,194,123.3,194z M143.1,187C143.1,187,143.1,187,143.1,187   C143.1,187,143.1,187,143.1,187z M128.2,193.2c-0.1,0-0.1,0.1-0.2,0.1C128.1,193.3,128.2,193.3,128.2,193.2z M128,193.4   c-0.1,0-0.1,0.1-0.2,0.1C127.9,193.4,127.9,193.4,128,193.4z M127.7,193.5c-0.1,0-0.1,0.1-0.2,0.1   C127.6,193.6,127.7,193.5,127.7,193.5z M96.1,195C96.1,195,96,195,96.1,195C96,195,96.1,195,96.1,195z M96,195   C96,195,95.9,195,96,195C95.9,195,96,195,96,195z M95.9,195C95.9,195,95.9,195,95.9,195C95.9,195,95.9,195,95.9,195z M95.9,195   C95.9,195,95.9,195,95.9,195C95.9,195,95.9,195,95.9,195z M96,195C95.9,195,95.9,195,96,195C95.9,195,95.9,195,96,195z M87,193.8   c-0.5,0-0.5,0.2-1.2,0.1C86.6,194,86.6,193.8,87,193.8L87,193.8z M12.1,133.8C12.1,133.8,12.1,133.8,12.1,133.8   C12.1,133.8,12.1,133.8,12.1,133.8z M12.1,133.8C12.1,133.8,12.1,133.8,12.1,133.8C12.1,133.8,12.1,133.8,12.1,133.8z M11.8,133.6   L11.8,133.6L11.8,133.6L11.8,133.6z M11.3,132.4C11.3,132.4,11.3,132.4,11.3,132.4C11.3,132.4,11.3,132.4,11.3,132.4z M11.5,132.8   C11.5,132.8,11.5,132.8,11.5,132.8C11.5,132.8,11.5,132.8,11.5,132.8z M11.7,133.2C11.7,133.2,11.7,133.2,11.7,133.2   C11.7,133.2,11.7,133.2,11.7,133.2z M122.6,194.4L122.6,194.4L122.6,194.4L122.6,194.4z M122.9,194.5c0,0,0.1,0,0.2,0   C123,194.5,122.9,194.5,122.9,194.5z M122.9,194.5C122.8,194.5,122.8,194.5,122.9,194.5C122.8,194.5,122.8,194.5,122.9,194.5z    M121.3,194.8c0,0,0.1,0,0.1,0C121.4,194.8,121.4,194.8,121.3,194.8z M121.2,194.9C121.3,194.9,121.3,194.9,121.2,194.9   C121.3,194.9,121.3,194.9,121.2,194.9z M128.4,193.2c0.1,0,0.1-0.1,0.2-0.1C128.5,193.2,128.4,193.2,128.4,193.2z M129.5,192.8   C129.5,192.8,129.5,192.8,129.5,192.8C129.5,192.8,129.5,192.8,129.5,192.8z M129.7,192.8L129.7,192.8L129.7,192.8L129.7,192.8z    M129.7,192.7c0,0,0.1-0.1,0.2-0.1C129.8,192.7,129.7,192.7,129.7,192.7z M129.5,192.8c0,0-0.1,0-0.1,0   C129.4,192.8,129.4,192.8,129.5,192.8z M129.2,192.9c-0.1,0-0.1,0-0.2,0.1C129.1,192.9,129.2,192.9,129.2,192.9z M128.9,193   c-0.1,0-0.1,0-0.2,0.1C128.8,193.1,128.8,193,128.9,193z M160.2,176C160.2,176,160.2,176,160.2,176c0.4-0.2,0.7-0.5,1.1-0.7   C161,175.5,160.6,175.8,160.2,176z M161.8,174.8c0.2-0.1,0.3-0.2,0.5-0.4C162.1,174.5,161.9,174.7,161.8,174.8z M87,193.8   c0.1,0,0.1-0.1,0.2-0.1C87.2,193.7,87.1,193.8,87,193.8L87,193.8L87,193.8c-0.8-0.1-1.6-0.4-2.4-0.6   C85.5,193.4,86.3,193.7,87,193.8z M7.2,85.3C7.2,85.3,7.2,85.3,7.2,85.3C7.2,85.3,7.2,85.3,7.2,85.3z M7.2,85.3   C7.2,85.3,7.2,85.3,7.2,85.3C7.2,85.3,7.2,85.3,7.2,85.3z M7.2,85.4C7.2,85.4,7.2,85.4,7.2,85.4C7.2,85.4,7.2,85.4,7.2,85.4z    M7.2,85.3C7.2,85.3,7.2,85.3,7.2,85.3C7.2,85.3,7.2,85.3,7.2,85.3z M7.3,85.1L7.3,85.1L7.3,85.1L7.3,85.1z M7.3,84.8   C7.3,84.8,7.3,84.8,7.3,84.8C7.3,84.8,7.3,84.8,7.3,84.8z M7.3,85C7.3,85,7.3,85,7.3,85C7.3,85,7.3,85,7.3,85z M7.3,84.7   c0,0,0-0.1,0-0.2C7.3,84.7,7.3,84.7,7.3,84.7z M96.8,2C96.8,2,96.8,2,96.8,2C96.8,2,96.8,2,96.8,2z M122.3,194.5   c-0.2,0.1-0.6,0.2-0.8,0.3C121.7,194.7,122.1,194.6,122.3,194.5L122.3,194.5z M117,193.6C117,193.6,116.9,193.6,117,193.6   C116.9,193.6,117,193.6,117,193.6z M117,193.7C117,193.7,117,193.7,117,193.7C117,193.7,117,193.7,117,193.7z M7.6,83.8   c-0.1,0.5-0.1,0.9-0.2,1.3C7.4,84.7,7.5,84.2,7.6,83.8z M97.2,2L97.2,2L97.2,2L97.2,2z M93.9,2.2C95.3,2.1,96,2,97.2,2   C96,2,95.3,2.1,93.9,2.2z M93.8,2.2c-0.2,0-0.5,0-0.7,0C93.3,2.2,93.6,2.2,93.8,2.2z M6.8,98.3C6.8,98.3,6.8,98.3,6.8,98.3   C6.8,98.3,6.8,98.3,6.8,98.3z"></path>
	<path class="st1" d="M182.1,42.2c-0.1,0-0.1,0-0.2-0.1c0.2,0.6,1,1.6,1.3,1.9C182.5,42.9,183.1,43.5,182.1,42.2z"></path>
	<path class="st1" d="M161,21.8c-0.2-0.3-0.5-0.6-0.9-0.9c-0.4-0.3-0.9-0.6-1.5-1.1c-0.8-0.5-1.9-1.4-2.6-1.8c1.3,1,2.5,1.9,3.7,2.7   C160.5,21.4,160.2,21.2,161,21.8z"></path>
</g>
</svg>
